<svg xmlns="http://www.w3.org/2000/svg" version="1.1" xmlns:xlink="http://www.w3.org/1999/xlink" xmlns:svgjs="http://svgjs.dev/svgjs" width="2000" height="358" viewBox="0 0 2000 358"><g transform="matrix(1,0,0,1,-1.2121212121212466,-0.9639825594155127)"><svg viewBox="0 0 396 71" data-background-color="#dfdad6" preserveAspectRatio="xMidYMid meet" height="358" width="2000" xmlns="http://www.w3.org/2000/svg" xmlns:xlink="http://www.w3.org/1999/xlink"><g id="tight-bounds" transform="matrix(1,0,0,1,0.2400000000000091,0.19118089865503407)"><svg viewBox="0 0 395.52 70.6176382026899" height="70.6176382026899" width="395.52"><g><svg viewBox="0 0 522.9697415928174 93.3729975797831" height="70.6176382026899" width="395.52"><g></g><g transform="matrix(1,0,0,1,127.44974159281745,12.90466174944904)"><svg viewBox="0 0 395.52 67.56367408088502" height="67.56367408088502" width="395.52"><g id="textblocktransform"><svg viewBox="0 0 395.52 67.56367408088502" height="67.56367408088502" width="395.52" id="textblock"><g><svg viewBox="0 0 395.52 42.14736145574856" height="42.14736145574856" width="395.52"><g transform="matrix(1,0,0,1,0,0)"><svg width="395.52" viewBox="3.3 -33.48 362.65999999999997 38.66" height="42.14736145574856" data-palette-color="url(#114bd842-b52b-4311-9cb2-13588bd00d4d)"></svg></g></svg></g><g transform="matrix(1,0,0,1,0,52.09734195877586)"><svg viewBox="0 0 232.209792 15.466332122109158" height="15.466332122109158" width="232.209792"><g transform="matrix(1,0,0,1,0,0)"><svg width="232.209792" viewBox="3.34 -33.15 501.39000000000004 33.39" height="15.466332122109158" data-palette-color="url(#f958dedc-8566-435e-a5fa-7d29bb687982)"></svg></g></svg></g></svg></g></svg></g><g><svg viewBox="0 0 103.74888803460644 93.3729975797831" height="93.3729975797831" width="103.74888803460644"><g><svg xmlns="http://www.w3.org/2000/svg" xmlns:xlink="http://www.w3.org/1999/xlink" version="1.1" x="0" y="0" viewBox="5.413 9.5 90.001 81.00003107864575" enable-background="new 0 0 100 100" xml:space="preserve" height="93.3729975797831" width="103.74888803460644" class="icon-icon-0" data-fill-palette-color="accent" id="icon-0"><g fill="#6e6e6e" data-fill-palette-color="accent"><path d="M93.398 77.222H7.429C6.316 77.222 5.413 76.33 5.413 75.23V11.491C5.413 10.392 6.315 9.5 7.429 9.5H93.399C94.512 9.5 95.414 10.393 95.414 11.491V75.229A2.005 2.005 0 0 1 93.398 77.222M9.443 73.237H91.382V13.483H9.443z" fill="#ffffff" data-fill-palette-color="accent"></path></g><g fill="#6e6e6e" data-fill-palette-color="accent"><path d="M83.995 67.927H16.831A2.004 2.004 0 0 1 14.816 65.934V20.786C14.816 19.687 15.718 18.795 16.831 18.795H83.995C85.107 18.795 86.011 19.688 86.011 20.786V65.933A2.006 2.006 0 0 1 83.995 67.927M18.846 63.942H81.98V22.778H18.846z" fill="#ffffff" data-fill-palette-color="accent"></path></g><g fill="#6e6e6e" data-fill-palette-color="accent"><path d="M59.815 90.5H41.011C39.899 90.5 38.996 89.607 38.996 88.509V75.229C38.996 74.129 39.898 73.237 41.011 73.237H59.816C60.929 73.237 61.832 74.13 61.832 75.229V88.508A2.006 2.006 0 0 1 59.815 90.5M43.025 86.517H57.8V77.222H43.025z" fill="#ffffff" data-fill-palette-color="accent"></path></g><g fill="#6e6e6e" data-fill-palette-color="accent"><rect x="16.831" y="86.517" width="67.164" height="3.983" fill="#ffffff" data-fill-palette-color="accent"></rect></g><g fill="#6e6e6e" data-fill-palette-color="accent"><path d="M55.787 59.959H45.039C43.928 59.959 43.025 59.067 43.025 57.968V50.664H35.636C34.525 50.664 33.621 49.772 33.621 48.672V38.049C33.621 36.95 34.524 36.058 35.636 36.058H43.025V28.754C43.025 27.654 43.927 26.763 45.039 26.763H55.787C56.898 26.763 57.801 27.655 57.801 28.754V36.058H65.19C66.301 36.058 67.205 36.951 67.205 38.049V48.672A2.004 2.004 0 0 1 65.19 50.664H57.801V57.968C57.801 59.067 56.898 59.959 55.787 59.959M47.055 55.976H53.773V48.672C53.773 47.572 54.674 46.681 55.788 46.681H63.176V40.041H55.788A2.004 2.004 0 0 1 53.773 38.049V30.746H47.055V38.049C47.055 39.149 46.153 40.041 45.039 40.041H37.651V46.681H45.039C46.152 46.681 47.055 47.573 47.055 48.672z" fill="#ffffff" data-fill-palette-color="accent"></path></g></svg></g></svg></g></svg></g><defs></defs><mask id="407d118a-c249-4b76-bbba-c0ff6c87d83d"><g id="SvgjsG3631"><svg viewBox="0 0 395.52 70.6176382026899" height="70.6176382026899" width="395.52"><g><svg viewBox="0 0 522.9697415928174 93.3729975797831" height="70.6176382026899" width="395.52"><g><rect width="3.8008925521564274" height="81.07640889706202" x="113.69886853763373" y="6.14829434136054" fill="white" opacity="1" stroke-width="0" stroke="transparent" fill-opacity="1" class="rect-yte-0" rx="1%" id="SvgjsRect3630" data-palette-color="url(#114bd842-b52b-4311-9cb2-13588bd00d4d)"></rect></g><g transform="matrix(1,0,0,1,127.44974159281745,12.90466174944904)"><svg viewBox="0 0 395.52 67.56367408088502" height="67.56367408088502" width="395.52"><g id="SvgjsG3629"><svg viewBox="0 0 395.52 67.56367408088502" height="67.56367408088502" width="395.52" id="SvgjsSvg3628"><g><svg viewBox="0 0 395.52 42.14736145574856" height="42.14736145574856" width="395.52"><g transform="matrix(1,0,0,1,0,0)"><svg width="395.52" viewBox="3.3 -33.48 362.65999999999997 38.66" height="42.14736145574856" data-palette-color="url(#114bd842-b52b-4311-9cb2-13588bd00d4d)"><path d="M37.83-15.73L37.83 0 33.77 0 33.77-15.28Q33.77-17.2 33.29-18.61 32.8-20.03 31.69-20.8 30.58-21.58 28.7-21.58L28.7-21.58Q26.93-21.58 25.63-20.85 24.33-20.13 23.53-18.91 22.73-17.7 22.4-16.15L22.4-16.15 21.78-19.03 22.28-19.03Q22.68-20.6 23.63-21.95 24.58-23.3 26.2-24.13 27.83-24.95 30.23-24.95L30.23-24.95Q32.95-24.95 34.61-23.88 36.27-22.8 37.05-20.74 37.83-18.68 37.83-15.73L37.83-15.73ZM7.35-18.3L7.35 0 3.3 0 3.3-24.4 7.35-24.4 7.18-18.55 7.35-18.3ZM22.58-15.85L22.58 0 18.55 0 18.55-15.28Q18.55-17.2 18.06-18.61 17.57-20.03 16.48-20.8 15.38-21.58 13.5-21.58L13.5-21.58Q11.7-21.58 10.4-20.85 9.1-20.13 8.3-18.89 7.5-17.65 7.18-16.07L7.18-16.07 6.43-18.95 7.33-18.95Q7.7-20.6 8.63-21.96 9.55-23.33 11.14-24.14 12.73-24.95 15-24.95L15-24.95Q18.38-24.95 20.14-23.2 21.9-21.45 22.35-18.1L22.35-18.1Q22.48-17.6 22.53-17.01 22.58-16.43 22.58-15.85L22.58-15.85ZM54.35 0.55L54.35 0.55Q48.77 0.55 45.95-2.18 43.12-4.9 43.12-9.98L43.12-9.98 43.12-14.33Q43.12-19.48 45.75-22.26 48.37-25.05 53.42-25.05L53.42-25.05Q56.82-25.05 59.1-23.79 61.37-22.53 62.52-20.2 63.67-17.88 63.67-14.65L63.67-14.65 63.67-13.75Q63.67-12.95 63.61-12.15 63.55-11.35 63.45-10.58L63.45-10.58 59.72-10.58Q59.77-11.78 59.79-12.85 59.8-13.93 59.8-14.83L59.8-14.83Q59.8-17.05 59.09-18.59 58.37-20.13 56.96-20.94 55.55-21.75 53.42-21.75L53.42-21.75Q50.27-21.75 48.7-19.93 47.12-18.1 47.12-14.7L47.12-14.7 47.12-12.38 47.15-11.88 47.15-9.55Q47.15-8.03 47.6-6.8 48.05-5.58 49.01-4.69 49.97-3.8 51.46-3.34 52.95-2.88 55-2.88L55-2.88Q57.37-2.88 59.42-3.5 61.47-4.13 63.27-5.2L63.27-5.2 62.9-1.7Q61.27-0.68 59.12-0.06 56.97 0.55 54.35 0.55ZM62.6-13.63L62.6-10.58 45.25-10.58 45.25-13.63 62.6-13.63ZM77.15 0.53L77.15 0.53Q72.75 0.53 70.45-2.2 68.15-4.93 68.15-10.15L68.15-10.15 68.15-14.18Q68.15-19.43 70.47-22.19 72.8-24.95 77.32-24.95L77.32-24.95Q79.57-24.95 81.22-24.19 82.87-23.43 83.9-22.05 84.92-20.68 85.27-18.8L85.27-18.8 86.6-18.8 85.4-15.08Q85.32-17.23 84.43-18.69 83.55-20.15 82.03-20.9 80.52-21.65 78.57-21.65L78.57-21.65Q75.47-21.65 73.83-19.85 72.2-18.05 72.2-14.55L72.2-14.55 72.2-9.9Q72.2-6.45 73.83-4.65 75.47-2.85 78.57-2.85L78.57-2.85Q80.42-2.85 81.85-3.56 83.27-4.28 84.21-5.54 85.15-6.8 85.5-8.4L85.5-8.4 86.5-5.5 85.3-5.5Q84.95-3.85 83.96-2.48 82.97-1.1 81.31-0.29 79.65 0.53 77.15 0.53ZM89.35-33.13L89.35 0 85.3 0 85.47-5.9 85.4-7.2 85.4-17.4 85.42-18.25 85.32-25.18 85.32-33.13 89.35-33.13ZM100.07-24.4L100.07 0 96.02 0 96.02-24.4 100.07-24.4ZM98.04-28.4L98.04-28.4Q96.79-28.4 96.18-29.06 95.57-29.73 95.57-30.88L95.57-30.88 95.57-31Q95.57-32.18 96.18-32.83 96.79-33.48 98.04-33.48L98.04-33.48Q99.29-33.48 99.92-32.83 100.54-32.18 100.54-31L100.54-31 100.54-30.88Q100.54-29.7 99.92-29.05 99.29-28.4 98.04-28.4ZM116.17 0.55L116.17 0.55Q110.92 0.55 108.35-2.29 105.79-5.13 105.79-10.33L105.79-10.33 105.79-14.13Q105.79-19.35 108.37-22.16 110.94-24.98 116.17-24.98L116.17-24.98Q117.72-24.98 118.99-24.69 120.27-24.4 121.28-23.94 122.29-23.48 122.99-22.98L122.99-22.98 123.34-19.45Q122.17-20.35 120.55-20.98 118.94-21.6 116.77-21.6L116.77-21.6Q113.27-21.6 111.55-19.66 109.84-17.73 109.84-14.03L109.84-14.03 109.84-10.43Q109.84-6.8 111.55-4.85 113.27-2.9 116.77-2.9L116.77-2.9Q119.02-2.9 120.65-3.53 122.29-4.15 123.57-5.05L123.57-5.05 123.19-1.48Q122.09-0.73 120.32-0.09 118.54 0.55 116.17 0.55ZM146.96-15.8L146.96 0 142.94 0 143.11-5.93 142.96-6.55 142.96-14.33 142.99-15.75Q142.99-18.73 141.48-20.15 139.96-21.58 136.69-21.58L136.69-21.58Q134.06-21.58 131.88-20.83 129.69-20.08 127.99-19.07L127.99-19.07 128.36-22.53Q129.31-23.1 130.63-23.66 131.94-24.23 133.63-24.6 135.31-24.98 137.34-24.98L137.34-24.98Q139.96-24.98 141.8-24.34 143.64-23.7 144.78-22.5 145.91-21.3 146.44-19.6 146.96-17.9 146.96-15.8L146.96-15.8ZM134.54 0.53L134.54 0.53Q130.91 0.53 128.98-1.24 127.04-3 127.04-6.28L127.04-6.28 127.04-7Q127.04-10.38 129.13-12.04 131.21-13.7 135.76-14.35L135.76-14.35 143.49-15.45 143.71-12.5 136.26-11.43Q133.46-11.03 132.26-10.06 131.06-9.1 131.06-7.23L131.06-7.23 131.06-6.83Q131.06-4.9 132.25-3.88 133.44-2.85 135.81-2.85L135.81-2.85Q137.91-2.85 139.41-3.58 140.91-4.3 141.84-5.53 142.76-6.75 143.09-8.25L143.09-8.25 143.71-5.5 142.94-5.5Q142.59-3.9 141.63-2.53 140.66-1.15 138.94-0.31 137.21 0.53 134.54 0.53ZM157.31-33.13L157.31 0 153.29 0 153.29-33.13 157.31-33.13ZM182.01 2L182.01 5.18 162.13 5.18 162.13 2 182.01 2ZM194.31 0.55L194.31 0.55Q191.36 0.55 189.16-0.09 186.96-0.73 185.51-1.48L185.51-1.48 185.13-5.23Q186.96-4.28 189.14-3.58 191.33-2.88 194.11-2.88L194.11-2.88Q196.93-2.88 198.36-3.78 199.78-4.67 199.78-6.45L199.78-6.45 199.78-6.73Q199.78-7.88 199.24-8.63 198.71-9.38 197.31-9.95 195.91-10.53 193.33-11.1L193.33-11.1Q190.26-11.78 188.48-12.69 186.71-13.6 185.94-14.95 185.18-16.3 185.18-18.25L185.18-18.25 185.18-18.48Q185.18-21.68 187.41-23.33 189.63-24.98 194.11-24.98L194.11-24.98Q196.98-24.98 199.09-24.33 201.21-23.68 202.56-22.88L202.56-22.88 202.93-19.45Q201.31-20.4 199.21-21.03 197.11-21.65 194.48-21.65L194.48-21.65Q192.58-21.65 191.41-21.26 190.23-20.88 189.71-20.16 189.18-19.45 189.18-18.45L189.18-18.45 189.18-18.25Q189.18-17.15 189.71-16.39 190.23-15.63 191.59-15.06 192.96-14.5 195.38-13.98L195.38-13.98Q198.51-13.35 200.34-12.48 202.18-11.6 202.98-10.26 203.78-8.93 203.78-6.83L203.78-6.83 203.78-6.4Q203.78-2.95 201.38-1.2 198.98 0.55 194.31 0.55ZM218.08 0.55L218.08 0.55Q212.83 0.55 210.27-2.29 207.7-5.13 207.7-10.33L207.7-10.33 207.7-14.13Q207.7-19.35 210.28-22.16 212.85-24.98 218.08-24.98L218.08-24.98Q219.63-24.98 220.9-24.69 222.18-24.4 223.19-23.94 224.2-23.48 224.9-22.98L224.9-22.98 225.25-19.45Q224.08-20.35 222.47-20.98 220.85-21.6 218.68-21.6L218.68-21.6Q215.18-21.6 213.47-19.66 211.75-17.73 211.75-14.03L211.75-14.03 211.75-10.43Q211.75-6.8 213.47-4.85 215.18-2.9 218.68-2.9L218.68-2.9Q220.93-2.9 222.57-3.53 224.2-4.15 225.48-5.05L225.48-5.05 225.1-1.48Q224-0.73 222.23-0.09 220.45 0.55 218.08 0.55ZM250.75-15.63L250.75 0 246.7 0 246.7-15.18Q246.7-17.15 246.16-18.57 245.63-20 244.41-20.79 243.2-21.58 241.1-21.58L241.1-21.58Q239.18-21.58 237.78-20.85 236.38-20.13 235.51-18.89 234.65-17.65 234.3-16.07L234.3-16.07 233.4-18.95 234.45-18.95Q234.83-20.6 235.83-21.96 236.83-23.33 238.51-24.14 240.2-24.95 242.63-24.95L242.63-24.95Q245.53-24.95 247.31-23.85 249.1-22.75 249.93-20.69 250.75-18.63 250.75-15.63L250.75-15.63ZM234.43-17.85L234.43 0 230.38 0 230.38-33.13 234.4-33.13 234.4-25.18 234.28-18.18 234.43-17.85ZM267.27 0.55L267.27 0.55Q261.7 0.55 258.87-2.18 256.05-4.9 256.05-9.98L256.05-9.98 256.05-14.33Q256.05-19.48 258.67-22.26 261.3-25.05 266.35-25.05L266.35-25.05Q269.75-25.05 272.02-23.79 274.3-22.53 275.45-20.2 276.6-17.88 276.6-14.65L276.6-14.65 276.6-13.75Q276.6-12.95 276.54-12.15 276.47-11.35 276.37-10.58L276.37-10.58 272.65-10.58Q272.7-11.78 272.71-12.85 272.72-13.93 272.72-14.83L272.72-14.83Q272.72-17.05 272.01-18.59 271.3-20.13 269.89-20.94 268.47-21.75 266.35-21.75L266.35-21.75Q263.2-21.75 261.62-19.93 260.05-18.1 260.05-14.7L260.05-14.7 260.05-12.38 260.07-11.88 260.07-9.55Q260.07-8.03 260.52-6.8 260.97-5.58 261.94-4.69 262.9-3.8 264.39-3.34 265.87-2.88 267.92-2.88L267.92-2.88Q270.3-2.88 272.35-3.5 274.4-4.13 276.2-5.2L276.2-5.2 275.82-1.7Q274.2-0.68 272.05-0.06 269.9 0.55 267.27 0.55ZM275.52-13.63L275.52-10.58 258.17-10.58 258.17-13.63 275.52-13.63ZM290.07 0.53L290.07 0.53Q285.67 0.53 283.37-2.2 281.07-4.93 281.07-10.15L281.07-10.15 281.07-14.18Q281.07-19.43 283.4-22.19 285.72-24.95 290.25-24.95L290.25-24.95Q292.5-24.95 294.15-24.19 295.8-23.43 296.82-22.05 297.85-20.68 298.2-18.8L298.2-18.8 299.52-18.8 298.32-15.08Q298.25-17.23 297.36-18.69 296.47-20.15 294.96-20.9 293.45-21.65 291.5-21.65L291.5-21.65Q288.4-21.65 286.76-19.85 285.12-18.05 285.12-14.55L285.12-14.55 285.12-9.9Q285.12-6.45 286.76-4.65 288.4-2.85 291.5-2.85L291.5-2.85Q293.35-2.85 294.77-3.56 296.2-4.28 297.13-5.54 298.07-6.8 298.42-8.4L298.42-8.4 299.42-5.5 298.22-5.5Q297.87-3.85 296.88-2.48 295.9-1.1 294.23-0.29 292.57 0.53 290.07 0.53ZM302.27-33.13L302.27 0 298.22 0 298.4-5.9 298.32-7.2 298.32-17.4 298.35-18.25 298.25-25.18 298.25-33.13 302.27-33.13ZM308.57-8.78L308.57-24.4 312.59-24.4 312.59-9.22Q312.59-7.3 313.13-5.86 313.67-4.42 314.89-3.64 316.12-2.85 318.19-2.85L318.19-2.85Q320.14-2.85 321.54-3.56 322.94-4.28 323.83-5.53 324.72-6.78 325.04-8.35L325.04-8.35 325.77-5.48 324.89-5.48Q324.52-3.83 323.52-2.46 322.52-1.1 320.83-0.29 319.14 0.53 316.67 0.53L316.67 0.53Q313.79 0.53 312.01-0.56 310.22-1.65 309.39-3.74 308.57-5.83 308.57-8.78L308.57-8.78ZM324.87-6.1L324.87-24.4 328.92-24.4 328.92 0 324.87 0 325.04-5.85 324.87-6.1ZM339.67-33.13L339.67 0 335.64 0 335.64-33.13 339.67-33.13ZM356.64 0.55L356.64 0.55Q351.06 0.55 348.24-2.18 345.41-4.9 345.41-9.98L345.41-9.98 345.41-14.33Q345.41-19.48 348.04-22.26 350.66-25.05 355.71-25.05L355.71-25.05Q359.11-25.05 361.39-23.79 363.66-22.53 364.81-20.2 365.96-17.88 365.96-14.65L365.96-14.65 365.96-13.75Q365.96-12.95 365.9-12.15 365.84-11.35 365.74-10.58L365.74-10.58 362.01-10.58Q362.06-11.78 362.08-12.85 362.09-13.93 362.09-14.83L362.09-14.83Q362.09-17.05 361.38-18.59 360.66-20.13 359.25-20.94 357.84-21.75 355.71-21.75L355.71-21.75Q352.56-21.75 350.99-19.93 349.41-18.1 349.41-14.7L349.41-14.7 349.41-12.38 349.44-11.88 349.44-9.55Q349.44-8.03 349.89-6.8 350.34-5.58 351.3-4.69 352.26-3.8 353.75-3.34 355.24-2.88 357.29-2.88L357.29-2.88Q359.66-2.88 361.71-3.5 363.76-4.13 365.56-5.2L365.56-5.2 365.19-1.7Q363.56-0.68 361.41-0.06 359.26 0.55 356.64 0.55ZM364.89-13.63L364.89-10.58 347.54-10.58 347.54-13.63 364.89-13.63Z" opacity="1" transform="matrix(1,0,0,1,0,0)" fill="white" class="wordmark-text-0" id="SvgjsPath3627"></path></svg></g></svg></g><g transform="matrix(1,0,0,1,0,52.09734195877586)"><svg viewBox="0 0 232.209792 15.466332122109158" height="15.466332122109158" width="232.209792"><g transform="matrix(1,0,0,1,0,0)"><svg width="232.209792" viewBox="3.34 -33.15 501.39000000000004 33.39" height="15.466332122109158" data-palette-color="url(#f958dedc-8566-435e-a5fa-7d29bb687982)"><path d="M27.03 0L24.71-26.83 18.04-10.69 15.23-10.69 8.33-26.88 6.23 0 3.34 0 5.79-31.35 9.25-31.35 16.63-14.21 23.8-31.35 27.25-31.35 29.91 0 27.03 0ZM45.65-21.85L45.65-21.85Q42.58-21.85 40.94-19.71 39.3-17.58 39.01-13.65L39.01-13.65 51.39-13.65 51.39-14.87Q51.39-18.07 49.84-19.96 48.29-21.85 45.65-21.85ZM46.07-2.34L46.07-2.34Q49.83-2.34 52.9-4.3L52.9-4.3 53.85-1.83Q52.19-0.81 50.14-0.28 48.09 0.24 46.24 0.24L46.24 0.24Q41.31 0.24 38.6-2.73 35.89-5.71 35.89-12.11L35.89-12.11Q35.89-18.24 38.52-21.33 41.16-24.41 45.63-24.41L45.63-24.41Q49.66-24.41 51.98-21.78 54.29-19.14 54.29-14.75L54.29-14.75Q54.29-13.75 54.1-11.45L54.1-11.45 39.01-11.45Q39.04-9.28 39.45-7.63 39.87-5.98 40.5-4.99 41.14-4 42.08-3.39 43.02-2.78 43.97-2.56 44.92-2.34 46.07-2.34ZM74.9-22.53L74.9-33.15 78.02-33.15 78.02 0 75.48 0 75.24-1.22Q72.5 0.24 69.33 0.24L69.33 0.24Q67.08 0.24 65.33-0.43 63.57-1.1 62.21-2.53 60.86-3.96 60.14-6.36 59.42-8.76 59.42-12.04L59.42-12.04Q59.42-14.6 59.91-16.69 60.4-18.77 61.24-20.19 62.08-21.61 63.25-22.57 64.42-23.54 65.77-23.97 67.11-24.41 68.6-24.41L68.6-24.41Q70.26-24.41 71.7-24.02 73.14-23.63 74.9-22.53L74.9-22.53ZM74.9-3.34L74.9-3.34 74.9-19.75Q72.9-20.9 71.56-21.37 70.23-21.85 68.99-21.85L68.99-21.85Q66.01-21.85 64.28-19.37 62.54-16.89 62.54-11.99L62.54-11.99Q62.54-2.34 69.77-2.34L69.77-2.34 70.45-2.34Q72.75-2.34 74.9-3.34ZM88.35-30.86L88.35-30.86Q88.35-31.88 88.98-32.5 89.62-33.11 90.57-33.11L90.57-33.11Q91.57-33.11 92.17-32.54 92.77-31.98 92.77-30.91 92.77-29.83 92.17-29.27 91.57-28.71 90.57-28.71L90.57-28.71Q89.59-28.71 88.97-29.28 88.35-29.86 88.35-30.86ZM89.01-21.85L84.32-21.85 84.32-24.05 92.13-24.05 92.13-2.2 96.82-2.2 96.82 0 84.32 0 84.32-2.2 89.01-2.2 89.01-21.85ZM116.27-4.15L116.27-4.15 117.45-1.93Q114.47 0.24 110.34 0.24L110.34 0.24Q106.07 0.24 103.33-2.95 100.6-6.15 100.6-12.08L100.6-12.08Q100.6-24.41 110.07-24.41L110.07-24.41Q113.39-24.41 116.49-22.95L116.49-22.95 116.49-16.65 114-16.41 114-21.29Q112.39-21.92 110.02-21.92L110.02-21.92Q108.22-21.92 106.96-21.22 105.7-20.51 105.01-19.14 104.31-17.77 104.02-16.05 103.73-14.33 103.73-12.04L103.73-12.04Q103.73-7.37 105.62-4.83 107.51-2.29 110.68-2.29L110.68-2.29Q113.54-2.29 116.27-4.15ZM124.65-6.79L124.65-6.79Q124.65-2.25 129.92-2.25L129.92-2.25Q131.48-2.25 133.11-2.71 134.73-3.17 135.78-3.86L135.78-3.86 135.78-11.55 134.41-11.55Q133.24-11.55 132.26-11.49 131.29-11.43 130.09-11.28 128.89-11.13 127.99-10.79 127.09-10.45 126.29-9.95 125.5-9.45 125.07-8.64 124.65-7.84 124.65-6.79ZM123.72-20.58L123.11-23Q127.43-24.41 130.63-24.41L130.63-24.41Q132.43-24.41 133.87-23.91 135.31-23.41 136.45-22.35 137.59-21.29 138.21-19.45 138.83-17.6 138.83-15.06L138.83-15.06 138.83 0 136.58 0 136.1-1.61Q135.22-0.9 133.26-0.33 131.31 0.24 129.43 0.24L129.43 0.24Q125.92 0.24 123.82-1.59 121.72-3.42 121.72-6.93L121.72-6.93Q121.72-8.06 122.07-9.02 122.42-9.99 123.29-10.89 124.16-11.79 125.49-12.44 126.82-13.09 128.89-13.46 130.97-13.84 133.63-13.84L133.63-13.84 135.78-13.84 135.78-14.62Q135.75-18.63 134.37-20.24 133-21.85 130.48-21.85L130.48-21.85Q130.11-21.85 129.69-21.81 129.26-21.78 128.94-21.74 128.63-21.7 128.08-21.59 127.53-21.48 127.27-21.45 127.01-21.41 126.35-21.25 125.7-21.09 125.52-21.04 125.35-21 124.58-20.8 123.82-20.61 123.72-20.58L123.72-20.58ZM144.08-30.93L144.08-33.15 152.6-33.15 152.6-2.2 157.75-2.2 157.75 0 144.03 0 144.03-2.2 149.47-2.2 149.47-30.93 144.08-30.93ZM178.91-33.15L182.04-33.15 182.04-22.53Q185.09-24.41 188.68-24.41L188.68-24.41Q192.51-24.41 194.69-21.39 196.88-18.36 196.88-12.04L196.88-12.04Q196.88-5.49 194.66-2.62 192.44 0.24 187.94 0.24L187.94 0.24Q184.43 0.24 181.69-1.22L181.69-1.22 181.45 0 178.91 0 178.91-33.15ZM182.04-19.75L182.04-3.34Q184.18-2.34 186.8-2.34L186.8-2.34 187.5-2.34Q190.82-2.34 192.29-4.58 193.75-6.81 193.75-11.99L193.75-11.99Q193.75-17.07 192.45-19.46 191.14-21.85 188.29-21.85L188.29-21.85Q185.67-21.85 182.04-19.75L182.04-19.75ZM217.02-3.98L217.02-3.98 217.02-24.05 220.14-24.05 220.14 0 217.58 0 217.36-1.56Q215.04-0.46 213.42-0.11 211.79 0.24 209.82 0.24L209.82 0.24Q206.11 0.24 204.37-1.71 202.64-3.66 202.64-7.84L202.64-7.84 202.64-24.05 205.76-24.05 205.76-7.71Q205.76-4.79 206.73-3.56 207.69-2.34 210.13-2.34L210.13-2.34Q211.35-2.34 212.12-2.4 212.89-2.47 214.27-2.84 215.65-3.22 217.02-3.98ZM226.24-1.68L227.25-4.08Q228.47-3.39 230.41-2.87 232.35-2.34 234.13-2.34L234.13-2.34Q236.38-2.34 237.76-3.31 239.14-4.27 239.14-6.47L239.14-6.47Q239.14-8.18 238.35-9.02 237.57-9.86 235.94-10.38L235.94-10.38 232.27-11.52Q230.81-11.99 229.87-12.44 228.93-12.89 228.12-13.61 227.32-14.33 226.95-15.39 226.59-16.46 226.59-17.94L226.59-17.94Q226.59-21.22 228.83-22.81 231.08-24.41 234.5-24.41 237.91-24.41 240.99-23L240.99-23 240.06-20.65Q237.55-21.85 234.72-21.85L234.72-21.85Q232.45-21.85 231.01-20.89 229.56-19.92 229.56-17.82L229.56-17.82Q229.56-16.26 230.36-15.63 231.15-14.99 233.2-14.33L233.2-14.33 236.79-13.18Q238.77-12.55 239.88-11.8 240.99-11.06 241.59-9.8 242.19-8.54 242.19-6.62L242.19-6.62Q242.19-4.79 241.55-3.42 240.92-2.05 239.78-1.27 238.65-0.49 237.28-0.12 235.91 0.24 234.28 0.24L234.28 0.24Q230.22 0.24 226.24-1.68L226.24-1.68ZM250.95-30.86L250.95-30.86Q250.95-31.88 251.58-32.5 252.22-33.11 253.17-33.11L253.17-33.11Q254.17-33.11 254.77-32.54 255.37-31.98 255.37-30.91 255.37-29.83 254.77-29.27 254.17-28.71 253.17-28.71L253.17-28.71Q252.19-28.71 251.57-29.28 250.95-29.86 250.95-30.86ZM251.61-21.85L246.92-21.85 246.92-24.05 254.73-24.05 254.73-2.2 259.42-2.2 259.42 0 246.92 0 246.92-2.2 251.61-2.2 251.61-21.85ZM267.11-20.07L267.11-20.07 267.11 0 263.98 0 263.98-24.05 266.55-24.05 266.77-22.49Q269.16-23.61 270.77-24.01 272.38-24.41 274.24-24.41L274.24-24.41Q277.95-24.41 279.72-22.39 281.49-20.36 281.49-16.19L281.49-16.19 281.49 0 278.36 0 278.36-16.31Q278.36-19.29 277.42-20.57 276.48-21.85 274.07-21.85L274.07-21.85Q270.36-21.85 267.11-20.07ZM297.01-21.85L297.01-21.85Q293.94-21.85 292.3-19.71 290.67-17.58 290.37-13.65L290.37-13.65 302.75-13.65 302.75-14.87Q302.75-18.07 301.2-19.96 299.65-21.85 297.01-21.85ZM297.43-2.34L297.43-2.34Q301.19-2.34 304.26-4.3L304.26-4.3 305.22-1.83Q303.56-0.81 301.51-0.28 299.45 0.24 297.6 0.24L297.6 0.24Q292.67 0.24 289.96-2.73 287.25-5.71 287.25-12.11L287.25-12.11Q287.25-18.24 289.88-21.33 292.52-24.41 296.99-24.41L296.99-24.41Q301.02-24.41 303.34-21.78 305.66-19.14 305.66-14.75L305.66-14.75Q305.66-13.75 305.46-11.45L305.46-11.45 290.37-11.45Q290.4-9.28 290.81-7.63 291.23-5.98 291.86-4.99 292.5-4 293.44-3.39 294.38-2.78 295.33-2.56 296.28-2.34 297.43-2.34ZM310.8-1.68L311.81-4.08Q313.03-3.39 314.97-2.87 316.91-2.34 318.69-2.34L318.69-2.34Q320.94-2.34 322.32-3.31 323.7-4.27 323.7-6.47L323.7-6.47Q323.7-8.18 322.91-9.02 322.13-9.86 320.5-10.38L320.5-10.38 316.84-11.52Q315.37-11.99 314.43-12.44 313.49-12.89 312.68-13.61 311.88-14.33 311.51-15.39 311.15-16.46 311.15-17.94L311.15-17.94Q311.15-21.22 313.39-22.81 315.64-24.41 319.06-24.41 322.47-24.41 325.55-23L325.55-23 324.62-20.65Q322.11-21.85 319.28-21.85L319.28-21.85Q317.01-21.85 315.57-20.89 314.13-19.92 314.13-17.82L314.13-17.82Q314.13-16.26 314.92-15.63 315.71-14.99 317.76-14.33L317.76-14.33 321.35-13.18Q323.33-12.55 324.44-11.8 325.55-11.06 326.15-9.8 326.75-8.54 326.75-6.62L326.75-6.62Q326.75-4.79 326.11-3.42 325.48-2.05 324.34-1.27 323.21-0.49 321.84-0.12 320.47 0.24 318.84 0.24L318.84 0.24Q314.78 0.24 310.8-1.68L310.8-1.68ZM331.26-1.68L332.26-4.08Q333.48-3.39 335.42-2.87 337.36-2.34 339.15-2.34L339.15-2.34Q341.39-2.34 342.77-3.31 344.15-4.27 344.15-6.47L344.15-6.47Q344.15-8.18 343.37-9.02 342.59-9.86 340.95-10.38L340.95-10.38 337.29-11.52Q335.83-11.99 334.89-12.44 333.95-12.89 333.14-13.61 332.34-14.33 331.97-15.39 331.6-16.46 331.6-17.94L331.6-17.94Q331.6-21.22 333.85-22.81 336.1-24.41 339.51-24.41 342.93-24.41 346.01-23L346.01-23 345.08-20.65Q342.57-21.85 339.73-21.85L339.73-21.85Q337.46-21.85 336.02-20.89 334.58-19.92 334.58-17.82L334.58-17.82Q334.58-16.26 335.38-15.63 336.17-14.99 338.22-14.33L338.22-14.33 341.81-13.18Q343.79-12.55 344.9-11.8 346.01-11.06 346.61-9.8 347.2-8.54 347.2-6.62L347.2-6.62Q347.2-4.79 346.57-3.42 345.93-2.05 344.8-1.27 343.66-0.49 342.3-0.12 340.93 0.24 339.29 0.24L339.29 0.24Q335.24 0.24 331.26-1.68L331.26-1.68ZM377.11 0.24L377.11 0.24Q375.15 0.2 373.9-0.39 372.64-0.98 371.93-2.23 371.22-3.49 370.95-5.19 370.69-6.88 370.69-9.47L370.69-9.47 370.69-21.85 366.95-21.85 366.95-24.05 370.78-24.05 371.39-30.93 373.81-30.93 373.81-24.05 381.33-24.05 381.33-21.85 373.81-21.85 373.81-9.42Q373.81-7.08 374.07-5.62 374.32-4.15 374.92-3.45 375.52-2.76 376.18-2.55 376.84-2.34 377.94-2.34L377.94-2.34Q380.45-2.34 381.6-2.51L381.6-2.51 381.72 0Q379.77 0.24 377.11 0.24ZM390.24-24.05L390.36-21.95Q391.8-22.92 394.01-23.63 396.22-24.34 398.08-24.41L398.08-24.41 398.08-21.8Q395.95-21.8 393.77-21.15 391.58-20.51 390.38-19.63L390.38-19.63 390.38 0 387.26 0 387.26-24.05 390.24-24.05ZM405.18-6.79L405.18-6.79Q405.18-2.25 410.45-2.25L410.45-2.25Q412.01-2.25 413.64-2.71 415.26-3.17 416.31-3.86L416.31-3.86 416.31-11.55 414.94-11.55Q413.77-11.55 412.79-11.49 411.82-11.43 410.62-11.28 409.43-11.13 408.52-10.79 407.62-10.45 406.83-9.95 406.03-9.45 405.6-8.64 405.18-7.84 405.18-6.79ZM404.25-20.58L403.64-23Q407.96-24.41 411.16-24.41L411.16-24.41Q412.97-24.41 414.41-23.91 415.85-23.41 416.98-22.35 418.12-21.29 418.74-19.45 419.36-17.6 419.36-15.06L419.36-15.06 419.36 0 417.12 0 416.63-1.61Q415.75-0.9 413.8-0.33 411.84 0.24 409.96 0.24L409.96 0.24Q406.45 0.24 404.35-1.59 402.25-3.42 402.25-6.93L402.25-6.93Q402.25-8.06 402.6-9.02 402.96-9.99 403.82-10.89 404.69-11.79 406.02-12.44 407.35-13.09 409.43-13.46 411.5-13.84 414.16-13.84L414.16-13.84 416.31-13.84 416.31-14.62Q416.29-18.63 414.91-20.24 413.53-21.85 411.01-21.85L411.01-21.85Q410.65-21.85 410.22-21.81 409.79-21.78 409.47-21.74 409.16-21.7 408.61-21.59 408.06-21.48 407.8-21.45 407.55-21.41 406.89-21.25 406.23-21.09 406.06-21.04 405.89-21 405.12-20.8 404.35-20.61 404.25-20.58L404.25-20.58ZM441.16-4.15L441.16-4.15 442.33-1.93Q439.35 0.24 435.23 0.24L435.23 0.24Q430.96 0.24 428.22-2.95 425.49-6.15 425.49-12.08L425.49-12.08Q425.49-24.41 434.96-24.41L434.96-24.41Q438.28-24.41 441.38-22.95L441.38-22.95 441.38-16.65 438.89-16.41 438.89-21.29Q437.28-21.92 434.91-21.92L434.91-21.92Q433.1-21.92 431.85-21.22 430.59-20.51 429.89-19.14 429.2-17.77 428.91-16.05 428.61-14.33 428.61-12.04L428.61-12.04Q428.61-7.37 430.5-4.83 432.4-2.29 435.57-2.29L435.57-2.29Q438.43-2.29 441.16-4.15ZM450.48 0L447.36 0 447.36-33.15 450.48-33.15 450.48-12.06Q457.93-20.02 461.5-24.05L461.5-24.05 465.23-24.05 455.07-12.74 466.11 0 462.5 0Q460.4-2.34 458.11-4.96 455.83-7.57 454.59-9.03L454.59-9.03 453.34-10.47 452.71-11.18 450.48-9.2 450.48 0ZM479.22-21.85L479.22-21.85Q476.14-21.85 474.51-19.71 472.87-17.58 472.58-13.65L472.58-13.65 484.95-13.65 484.95-14.87Q484.95-18.07 483.4-19.96 481.85-21.85 479.22-21.85ZM479.63-2.34L479.63-2.34Q483.39-2.34 486.47-4.3L486.47-4.3 487.42-1.83Q485.76-0.81 483.71-0.28 481.66 0.24 479.8 0.24L479.8 0.24Q474.87 0.24 472.16-2.73 469.45-5.71 469.45-12.11L469.45-12.11Q469.45-18.24 472.09-21.33 474.73-24.41 479.19-24.41L479.19-24.41Q483.22-24.41 485.54-21.78 487.86-19.14 487.86-14.75L487.86-14.75Q487.86-13.75 487.66-11.45L487.66-11.45 472.58-11.45Q472.6-9.28 473.02-7.63 473.43-5.98 474.07-4.99 474.7-4 475.64-3.39 476.58-2.78 477.53-2.56 478.49-2.34 479.63-2.34ZM496.89-24.05L497.01-21.95Q498.45-22.92 500.66-23.63 502.87-24.34 504.73-24.41L504.73-24.41 504.73-21.8Q502.6-21.8 500.42-21.15 498.23-20.51 497.04-19.63L497.04-19.63 497.04 0 493.91 0 493.91-24.05 496.89-24.05Z" opacity="1" transform="matrix(1,0,0,1,0,0)" fill="black" class="slogan-text-1" id="SvgjsPath3626"></path></svg></g></svg></g></svg></g></svg></g><g><svg viewBox="0 0 103.74888803460644 93.3729975797831" height="93.3729975797831" width="103.74888803460644"><g><svg xmlns="http://www.w3.org/2000/svg" xmlns:xlink="http://www.w3.org/1999/xlink" version="1.1" x="0" y="0" viewBox="5.413 9.5 90.001 81.00003107864575" enable-background="new 0 0 100 100" xml:space="preserve" height="93.3729975797831" width="103.74888803460644" class="icon-icon-0" data-fill-palette-color="accent" id="SvgjsSvg3625"><g fill="black"><path d="M93.398 77.222H7.429C6.316 77.222 5.413 76.33 5.413 75.23V11.491C5.413 10.392 6.315 9.5 7.429 9.5H93.399C94.512 9.5 95.414 10.393 95.414 11.491V75.229A2.005 2.005 0 0 1 93.398 77.222M9.443 73.237H91.382V13.483H9.443z" fill="black"></path></g><g fill="black"><path d="M83.995 67.927H16.831A2.004 2.004 0 0 1 14.816 65.934V20.786C14.816 19.687 15.718 18.795 16.831 18.795H83.995C85.107 18.795 86.011 19.688 86.011 20.786V65.933A2.006 2.006 0 0 1 83.995 67.927M18.846 63.942H81.98V22.778H18.846z" fill="black"></path></g><g fill="black"><path d="M59.815 90.5H41.011C39.899 90.5 38.996 89.607 38.996 88.509V75.229C38.996 74.129 39.898 73.237 41.011 73.237H59.816C60.929 73.237 61.832 74.13 61.832 75.229V88.508A2.006 2.006 0 0 1 59.815 90.5M43.025 86.517H57.8V77.222H43.025z" fill="black"></path></g><g fill="black"><rect x="16.831" y="86.517" width="67.164" height="3.983" fill="black"></rect></g><g fill="black"><path d="M55.787 59.959H45.039C43.928 59.959 43.025 59.067 43.025 57.968V50.664H35.636C34.525 50.664 33.621 49.772 33.621 48.672V38.049C33.621 36.95 34.524 36.058 35.636 36.058H43.025V28.754C43.025 27.654 43.927 26.763 45.039 26.763H55.787C56.898 26.763 57.801 27.655 57.801 28.754V36.058H65.19C66.301 36.058 67.205 36.951 67.205 38.049V48.672A2.004 2.004 0 0 1 65.19 50.664H57.801V57.968C57.801 59.067 56.898 59.959 55.787 59.959M47.055 55.976H53.773V48.672C53.773 47.572 54.674 46.681 55.788 46.681H63.176V40.041H55.788A2.004 2.004 0 0 1 53.773 38.049V30.746H47.055V38.049C47.055 39.149 46.153 40.041 45.039 40.041H37.651V46.681H45.039C46.152 46.681 47.055 47.573 47.055 48.672z" fill="black"></path></g></svg></g></svg></g></svg></g><defs><mask></mask></defs></svg><rect width="395.52" height="70.6176382026899" fill="black" stroke="none" visibility="hidden"></rect></g></mask><linearGradient x1="0.054" x2="0.941" y1="0.5" y2="0.5" id="114bd842-b52b-4311-9cb2-13588bd00d4d"><stop stop-color="#26282a" offset="0"></stop><stop stop-color="#9e9fa0" offset="0.498"></stop><stop stop-color="#26282a" offset="1"></stop></linearGradient><rect width="395.52" height="70.6176382026899" fill="#ffffff" mask="url(#407d118a-c249-4b76-bbba-c0ff6c87d83d)" data-fill-palette-color="primary"></rect><mask id="24801f4a-59c3-4778-8398-a6c10decb44b"><g id="SvgjsG3643"><svg viewBox="0 0 395.52 70.6176382026899" height="70.6176382026899" width="395.52"><g><svg viewBox="0 0 522.9697415928174 93.3729975797831" height="70.6176382026899" width="395.52"><g></g><g transform="matrix(1,0,0,1,127.44974159281745,12.90466174944904)"><svg viewBox="0 0 395.52 67.56367408088502" height="67.56367408088502" width="395.52"><g id="SvgjsG3642"><svg viewBox="0 0 395.52 67.56367408088502" height="67.56367408088502" width="395.52" id="SvgjsSvg3641"><g><svg viewBox="0 0 395.52 42.14736145574856" height="42.14736145574856" width="395.52"><g transform="matrix(1,0,0,1,0,0)"><svg width="395.52" viewBox="3.3 -33.48 362.65999999999997 38.66" height="42.14736145574856" data-palette-color="url(#114bd842-b52b-4311-9cb2-13588bd00d4d)"></svg></g></svg></g><g transform="matrix(1,0,0,1,0,52.09734195877586)"><svg viewBox="0 0 232.209792 15.466332122109158" height="15.466332122109158" width="232.209792"><g transform="matrix(1,0,0,1,0,0)"><svg width="232.209792" viewBox="3.34 -33.15 501.39000000000004 33.39" height="15.466332122109158" data-palette-color="url(#f958dedc-8566-435e-a5fa-7d29bb687982)"><path d="M27.03 0L24.71-26.83 18.04-10.69 15.23-10.69 8.33-26.88 6.23 0 3.34 0 5.79-31.35 9.25-31.35 16.63-14.21 23.8-31.35 27.25-31.35 29.91 0 27.03 0ZM45.65-21.85L45.65-21.85Q42.58-21.85 40.94-19.71 39.3-17.58 39.01-13.65L39.01-13.65 51.39-13.65 51.39-14.87Q51.39-18.07 49.84-19.96 48.29-21.85 45.65-21.85ZM46.07-2.34L46.07-2.34Q49.83-2.34 52.9-4.3L52.9-4.3 53.85-1.83Q52.19-0.81 50.14-0.28 48.09 0.24 46.24 0.24L46.24 0.24Q41.31 0.24 38.6-2.73 35.89-5.71 35.89-12.11L35.89-12.11Q35.89-18.24 38.52-21.33 41.16-24.41 45.63-24.41L45.63-24.41Q49.66-24.41 51.98-21.78 54.29-19.14 54.29-14.75L54.29-14.75Q54.29-13.75 54.1-11.45L54.1-11.45 39.01-11.45Q39.04-9.28 39.45-7.63 39.87-5.98 40.5-4.99 41.14-4 42.08-3.39 43.02-2.78 43.97-2.56 44.92-2.34 46.07-2.34ZM74.9-22.53L74.9-33.15 78.02-33.15 78.02 0 75.48 0 75.24-1.22Q72.5 0.24 69.33 0.24L69.33 0.24Q67.08 0.24 65.33-0.43 63.57-1.1 62.21-2.53 60.86-3.96 60.14-6.36 59.42-8.76 59.42-12.04L59.42-12.04Q59.42-14.6 59.91-16.69 60.4-18.77 61.24-20.19 62.08-21.61 63.25-22.57 64.42-23.54 65.77-23.97 67.11-24.41 68.6-24.41L68.6-24.41Q70.26-24.41 71.7-24.02 73.14-23.63 74.9-22.53L74.9-22.53ZM74.9-3.34L74.9-3.34 74.9-19.75Q72.9-20.9 71.56-21.37 70.23-21.85 68.99-21.85L68.99-21.85Q66.01-21.85 64.28-19.37 62.54-16.89 62.54-11.99L62.54-11.99Q62.54-2.34 69.77-2.34L69.77-2.34 70.45-2.34Q72.75-2.34 74.9-3.34ZM88.35-30.86L88.35-30.86Q88.35-31.88 88.98-32.5 89.62-33.11 90.57-33.11L90.57-33.11Q91.57-33.11 92.17-32.54 92.77-31.98 92.77-30.91 92.77-29.83 92.17-29.27 91.57-28.71 90.57-28.71L90.57-28.71Q89.59-28.71 88.97-29.28 88.35-29.86 88.35-30.86ZM89.01-21.85L84.32-21.85 84.32-24.05 92.13-24.05 92.13-2.2 96.82-2.2 96.82 0 84.32 0 84.32-2.2 89.01-2.2 89.01-21.85ZM116.27-4.15L116.27-4.15 117.45-1.93Q114.47 0.24 110.34 0.24L110.34 0.24Q106.07 0.24 103.33-2.95 100.6-6.15 100.6-12.08L100.6-12.08Q100.6-24.41 110.07-24.41L110.07-24.41Q113.39-24.41 116.49-22.95L116.49-22.95 116.49-16.65 114-16.41 114-21.29Q112.39-21.92 110.02-21.92L110.02-21.92Q108.22-21.92 106.96-21.22 105.7-20.51 105.01-19.14 104.31-17.77 104.02-16.05 103.73-14.33 103.73-12.04L103.73-12.04Q103.73-7.37 105.62-4.83 107.51-2.29 110.68-2.29L110.68-2.29Q113.54-2.29 116.27-4.15ZM124.65-6.79L124.65-6.79Q124.65-2.25 129.92-2.25L129.92-2.25Q131.48-2.25 133.11-2.71 134.73-3.17 135.78-3.86L135.78-3.86 135.78-11.55 134.41-11.55Q133.24-11.55 132.26-11.49 131.29-11.43 130.09-11.28 128.89-11.13 127.99-10.79 127.09-10.45 126.29-9.95 125.5-9.45 125.07-8.64 124.65-7.84 124.65-6.79ZM123.72-20.58L123.11-23Q127.43-24.41 130.63-24.41L130.63-24.41Q132.43-24.41 133.87-23.91 135.31-23.41 136.45-22.35 137.59-21.29 138.21-19.45 138.83-17.6 138.83-15.06L138.83-15.06 138.83 0 136.58 0 136.1-1.61Q135.22-0.9 133.26-0.33 131.31 0.24 129.43 0.24L129.43 0.24Q125.92 0.24 123.82-1.59 121.72-3.42 121.72-6.93L121.72-6.93Q121.72-8.06 122.07-9.02 122.42-9.99 123.29-10.89 124.16-11.79 125.49-12.44 126.82-13.09 128.89-13.46 130.97-13.84 133.63-13.84L133.63-13.84 135.78-13.84 135.78-14.62Q135.75-18.63 134.37-20.24 133-21.85 130.48-21.85L130.48-21.85Q130.11-21.85 129.69-21.81 129.26-21.78 128.94-21.74 128.63-21.7 128.08-21.59 127.53-21.48 127.27-21.45 127.01-21.41 126.35-21.25 125.7-21.09 125.52-21.04 125.35-21 124.58-20.8 123.82-20.61 123.72-20.58L123.72-20.58ZM144.08-30.93L144.08-33.15 152.6-33.15 152.6-2.2 157.75-2.2 157.75 0 144.03 0 144.03-2.2 149.47-2.2 149.47-30.93 144.08-30.93ZM178.91-33.15L182.04-33.15 182.04-22.53Q185.09-24.41 188.68-24.41L188.68-24.41Q192.51-24.41 194.69-21.39 196.88-18.36 196.88-12.04L196.88-12.04Q196.88-5.49 194.66-2.62 192.44 0.24 187.94 0.24L187.94 0.24Q184.43 0.24 181.69-1.22L181.69-1.22 181.45 0 178.91 0 178.91-33.15ZM182.04-19.75L182.04-3.34Q184.18-2.34 186.8-2.34L186.8-2.34 187.5-2.34Q190.82-2.34 192.29-4.58 193.75-6.81 193.75-11.99L193.75-11.99Q193.75-17.07 192.45-19.46 191.14-21.85 188.29-21.85L188.29-21.85Q185.67-21.85 182.04-19.75L182.04-19.75ZM217.02-3.98L217.02-3.98 217.02-24.05 220.14-24.05 220.14 0 217.58 0 217.36-1.56Q215.04-0.46 213.42-0.11 211.79 0.24 209.82 0.24L209.82 0.24Q206.11 0.24 204.37-1.71 202.64-3.66 202.64-7.84L202.64-7.84 202.64-24.05 205.76-24.05 205.76-7.71Q205.76-4.79 206.73-3.56 207.69-2.34 210.13-2.34L210.13-2.34Q211.35-2.34 212.12-2.4 212.89-2.47 214.27-2.84 215.65-3.22 217.02-3.98ZM226.24-1.68L227.25-4.08Q228.47-3.39 230.41-2.87 232.35-2.34 234.13-2.34L234.13-2.34Q236.38-2.34 237.76-3.31 239.14-4.27 239.14-6.47L239.14-6.47Q239.14-8.18 238.35-9.02 237.57-9.86 235.94-10.38L235.94-10.38 232.27-11.52Q230.81-11.99 229.87-12.44 228.93-12.89 228.12-13.61 227.32-14.33 226.95-15.39 226.59-16.46 226.59-17.94L226.59-17.94Q226.59-21.22 228.83-22.81 231.08-24.41 234.5-24.41 237.91-24.41 240.99-23L240.99-23 240.06-20.65Q237.55-21.85 234.72-21.85L234.72-21.85Q232.45-21.85 231.01-20.89 229.56-19.92 229.56-17.82L229.56-17.82Q229.56-16.26 230.36-15.63 231.15-14.99 233.2-14.33L233.2-14.33 236.79-13.18Q238.77-12.55 239.88-11.8 240.99-11.06 241.59-9.8 242.19-8.54 242.19-6.62L242.19-6.62Q242.19-4.79 241.55-3.42 240.92-2.05 239.78-1.27 238.65-0.49 237.28-0.12 235.91 0.24 234.28 0.24L234.28 0.24Q230.22 0.24 226.24-1.68L226.24-1.68ZM250.95-30.86L250.95-30.86Q250.95-31.88 251.58-32.5 252.22-33.11 253.17-33.11L253.17-33.11Q254.17-33.11 254.77-32.54 255.37-31.98 255.37-30.91 255.37-29.83 254.77-29.27 254.17-28.71 253.17-28.71L253.17-28.71Q252.19-28.71 251.57-29.28 250.95-29.86 250.95-30.86ZM251.61-21.85L246.92-21.85 246.92-24.05 254.73-24.05 254.73-2.2 259.42-2.2 259.42 0 246.92 0 246.92-2.2 251.61-2.2 251.61-21.85ZM267.11-20.07L267.11-20.07 267.11 0 263.98 0 263.98-24.05 266.55-24.05 266.77-22.49Q269.16-23.61 270.77-24.01 272.38-24.41 274.24-24.41L274.24-24.41Q277.95-24.41 279.72-22.39 281.49-20.36 281.49-16.19L281.49-16.19 281.49 0 278.36 0 278.36-16.31Q278.36-19.29 277.42-20.57 276.48-21.85 274.07-21.85L274.07-21.85Q270.36-21.85 267.11-20.07ZM297.01-21.85L297.01-21.85Q293.94-21.85 292.3-19.71 290.67-17.58 290.37-13.65L290.37-13.65 302.75-13.65 302.75-14.87Q302.75-18.07 301.2-19.96 299.65-21.85 297.01-21.85ZM297.43-2.34L297.43-2.34Q301.19-2.34 304.26-4.3L304.26-4.3 305.22-1.83Q303.56-0.81 301.51-0.28 299.45 0.24 297.6 0.24L297.6 0.24Q292.67 0.24 289.96-2.73 287.25-5.71 287.25-12.11L287.25-12.11Q287.25-18.24 289.88-21.33 292.52-24.41 296.99-24.41L296.99-24.41Q301.02-24.41 303.34-21.78 305.66-19.14 305.66-14.75L305.66-14.75Q305.66-13.75 305.46-11.45L305.46-11.45 290.37-11.45Q290.4-9.28 290.81-7.63 291.23-5.98 291.86-4.99 292.5-4 293.44-3.39 294.38-2.78 295.33-2.56 296.28-2.34 297.43-2.34ZM310.8-1.68L311.81-4.08Q313.03-3.39 314.97-2.87 316.91-2.34 318.69-2.34L318.69-2.34Q320.94-2.34 322.32-3.31 323.7-4.27 323.7-6.47L323.7-6.47Q323.7-8.18 322.91-9.02 322.13-9.86 320.5-10.38L320.5-10.38 316.84-11.52Q315.37-11.99 314.43-12.44 313.49-12.89 312.68-13.61 311.88-14.33 311.51-15.39 311.15-16.46 311.15-17.94L311.15-17.94Q311.15-21.22 313.39-22.81 315.64-24.41 319.06-24.41 322.47-24.41 325.55-23L325.55-23 324.62-20.65Q322.11-21.85 319.28-21.85L319.28-21.85Q317.01-21.85 315.57-20.89 314.13-19.92 314.13-17.82L314.13-17.82Q314.13-16.26 314.92-15.63 315.71-14.99 317.76-14.33L317.76-14.33 321.35-13.18Q323.33-12.55 324.44-11.8 325.55-11.06 326.15-9.8 326.75-8.54 326.75-6.62L326.75-6.62Q326.75-4.79 326.11-3.42 325.48-2.05 324.34-1.27 323.21-0.49 321.84-0.12 320.47 0.24 318.84 0.24L318.84 0.24Q314.78 0.24 310.8-1.68L310.8-1.68ZM331.26-1.68L332.26-4.08Q333.48-3.39 335.42-2.87 337.36-2.34 339.15-2.34L339.15-2.34Q341.39-2.34 342.77-3.31 344.15-4.27 344.15-6.47L344.15-6.47Q344.15-8.18 343.37-9.02 342.59-9.86 340.95-10.38L340.95-10.38 337.29-11.52Q335.83-11.99 334.89-12.44 333.95-12.89 333.14-13.61 332.34-14.33 331.97-15.39 331.6-16.46 331.6-17.94L331.6-17.94Q331.6-21.22 333.85-22.81 336.1-24.41 339.51-24.41 342.93-24.41 346.01-23L346.01-23 345.08-20.65Q342.57-21.85 339.73-21.85L339.73-21.85Q337.46-21.85 336.02-20.89 334.58-19.92 334.58-17.82L334.58-17.82Q334.58-16.26 335.38-15.63 336.17-14.99 338.22-14.33L338.22-14.33 341.81-13.18Q343.79-12.55 344.9-11.8 346.01-11.06 346.61-9.8 347.2-8.54 347.2-6.62L347.2-6.62Q347.2-4.79 346.57-3.42 345.93-2.05 344.8-1.27 343.66-0.49 342.3-0.12 340.93 0.24 339.29 0.24L339.29 0.24Q335.24 0.24 331.26-1.68L331.26-1.68ZM377.11 0.24L377.11 0.24Q375.15 0.2 373.9-0.39 372.64-0.98 371.93-2.23 371.22-3.49 370.95-5.19 370.69-6.88 370.69-9.47L370.69-9.47 370.69-21.85 366.95-21.85 366.95-24.05 370.78-24.05 371.39-30.93 373.81-30.93 373.81-24.05 381.33-24.05 381.33-21.85 373.81-21.85 373.81-9.42Q373.81-7.08 374.07-5.62 374.32-4.15 374.92-3.45 375.52-2.76 376.18-2.55 376.84-2.34 377.94-2.34L377.94-2.34Q380.45-2.34 381.6-2.51L381.6-2.51 381.72 0Q379.77 0.24 377.11 0.24ZM390.24-24.05L390.36-21.95Q391.8-22.92 394.01-23.63 396.22-24.34 398.08-24.41L398.08-24.41 398.08-21.8Q395.95-21.8 393.77-21.15 391.58-20.51 390.38-19.63L390.38-19.63 390.38 0 387.26 0 387.26-24.05 390.24-24.05ZM405.18-6.79L405.18-6.79Q405.18-2.25 410.45-2.25L410.45-2.25Q412.01-2.25 413.64-2.71 415.26-3.17 416.31-3.86L416.31-3.86 416.31-11.55 414.94-11.55Q413.77-11.55 412.79-11.49 411.82-11.43 410.62-11.28 409.43-11.13 408.52-10.79 407.62-10.45 406.83-9.95 406.03-9.45 405.6-8.64 405.18-7.84 405.18-6.79ZM404.25-20.58L403.64-23Q407.96-24.41 411.16-24.41L411.16-24.41Q412.97-24.41 414.41-23.91 415.85-23.41 416.98-22.35 418.12-21.29 418.74-19.45 419.36-17.6 419.36-15.06L419.36-15.06 419.36 0 417.12 0 416.63-1.61Q415.75-0.9 413.8-0.33 411.84 0.24 409.96 0.24L409.96 0.24Q406.45 0.24 404.35-1.59 402.25-3.42 402.25-6.93L402.25-6.93Q402.25-8.06 402.6-9.02 402.96-9.99 403.82-10.89 404.69-11.79 406.02-12.44 407.35-13.09 409.43-13.46 411.5-13.84 414.16-13.84L414.16-13.84 416.31-13.84 416.31-14.62Q416.29-18.63 414.91-20.24 413.53-21.85 411.01-21.85L411.01-21.85Q410.65-21.85 410.22-21.81 409.79-21.78 409.47-21.74 409.16-21.7 408.61-21.59 408.06-21.48 407.8-21.45 407.55-21.41 406.89-21.25 406.23-21.09 406.06-21.04 405.89-21 405.12-20.8 404.35-20.61 404.25-20.58L404.25-20.58ZM441.16-4.15L441.16-4.15 442.33-1.93Q439.35 0.24 435.23 0.24L435.23 0.24Q430.96 0.24 428.22-2.95 425.49-6.15 425.49-12.08L425.49-12.08Q425.49-24.41 434.96-24.41L434.96-24.41Q438.28-24.41 441.38-22.95L441.38-22.95 441.38-16.65 438.89-16.41 438.89-21.29Q437.28-21.92 434.91-21.92L434.91-21.92Q433.1-21.92 431.85-21.22 430.59-20.51 429.89-19.14 429.2-17.77 428.91-16.05 428.61-14.33 428.61-12.04L428.61-12.04Q428.61-7.37 430.5-4.83 432.4-2.29 435.57-2.29L435.57-2.29Q438.43-2.29 441.16-4.15ZM450.48 0L447.36 0 447.36-33.15 450.48-33.15 450.48-12.06Q457.93-20.02 461.5-24.05L461.5-24.05 465.23-24.05 455.07-12.74 466.11 0 462.5 0Q460.4-2.34 458.11-4.96 455.83-7.57 454.59-9.03L454.59-9.03 453.34-10.47 452.71-11.18 450.48-9.2 450.48 0ZM479.22-21.85L479.22-21.85Q476.14-21.85 474.51-19.71 472.87-17.58 472.58-13.65L472.58-13.65 484.95-13.65 484.95-14.87Q484.95-18.07 483.4-19.96 481.85-21.85 479.22-21.85ZM479.63-2.34L479.63-2.34Q483.39-2.34 486.47-4.3L486.47-4.3 487.42-1.83Q485.76-0.81 483.71-0.28 481.66 0.24 479.8 0.24L479.8 0.24Q474.87 0.24 472.16-2.73 469.45-5.71 469.45-12.11L469.45-12.11Q469.45-18.24 472.09-21.33 474.73-24.41 479.19-24.41L479.19-24.41Q483.22-24.41 485.54-21.78 487.86-19.14 487.86-14.75L487.86-14.75Q487.86-13.75 487.66-11.45L487.66-11.45 472.58-11.45Q472.6-9.28 473.02-7.63 473.43-5.98 474.07-4.99 474.7-4 475.64-3.39 476.58-2.78 477.53-2.56 478.49-2.34 479.63-2.34ZM496.89-24.05L497.01-21.95Q498.45-22.92 500.66-23.63 502.87-24.34 504.73-24.41L504.73-24.41 504.73-21.8Q502.6-21.8 500.42-21.15 498.23-20.51 497.04-19.63L497.04-19.63 497.04 0 493.91 0 493.91-24.05 496.89-24.05Z" opacity="1" transform="matrix(1,0,0,1,0,0)" fill="white" class="slogan-text-1" id="SvgjsPath3640"></path></svg></g></svg></g></svg></g></svg></g><g><svg viewBox="0 0 103.74888803460644 93.3729975797831" height="93.3729975797831" width="103.74888803460644"><g><svg xmlns="http://www.w3.org/2000/svg" xmlns:xlink="http://www.w3.org/1999/xlink" version="1.1" x="0" y="0" viewBox="5.413 9.5 90.001 81.00003107864575" enable-background="new 0 0 100 100" xml:space="preserve" height="93.3729975797831" width="103.74888803460644" class="icon-icon-0" data-fill-palette-color="accent" id="SvgjsSvg3639"><g fill="black"><path d="M93.398 77.222H7.429C6.316 77.222 5.413 76.33 5.413 75.23V11.491C5.413 10.392 6.315 9.5 7.429 9.5H93.399C94.512 9.5 95.414 10.393 95.414 11.491V75.229A2.005 2.005 0 0 1 93.398 77.222M9.443 73.237H91.382V13.483H9.443z" fill="black"></path></g><g fill="black"><path d="M83.995 67.927H16.831A2.004 2.004 0 0 1 14.816 65.934V20.786C14.816 19.687 15.718 18.795 16.831 18.795H83.995C85.107 18.795 86.011 19.688 86.011 20.786V65.933A2.006 2.006 0 0 1 83.995 67.927M18.846 63.942H81.98V22.778H18.846z" fill="black"></path></g><g fill="black"><path d="M59.815 90.5H41.011C39.899 90.5 38.996 89.607 38.996 88.509V75.229C38.996 74.129 39.898 73.237 41.011 73.237H59.816C60.929 73.237 61.832 74.13 61.832 75.229V88.508A2.006 2.006 0 0 1 59.815 90.5M43.025 86.517H57.8V77.222H43.025z" fill="black"></path></g><g fill="black"><rect x="16.831" y="86.517" width="67.164" height="3.983" fill="black"></rect></g><g fill="black"><path d="M55.787 59.959H45.039C43.928 59.959 43.025 59.067 43.025 57.968V50.664H35.636C34.525 50.664 33.621 49.772 33.621 48.672V38.049C33.621 36.95 34.524 36.058 35.636 36.058H43.025V28.754C43.025 27.654 43.927 26.763 45.039 26.763H55.787C56.898 26.763 57.801 27.655 57.801 28.754V36.058H65.19C66.301 36.058 67.205 36.951 67.205 38.049V48.672A2.004 2.004 0 0 1 65.19 50.664H57.801V57.968C57.801 59.067 56.898 59.959 55.787 59.959M47.055 55.976H53.773V48.672C53.773 47.572 54.674 46.681 55.788 46.681H63.176V40.041H55.788A2.004 2.004 0 0 1 53.773 38.049V30.746H47.055V38.049C47.055 39.149 46.153 40.041 45.039 40.041H37.651V46.681H45.039C46.152 46.681 47.055 47.573 47.055 48.672z" fill="black"></path></g></svg></g></svg></g></svg></g><defs><mask></mask></defs><mask><g id="SvgjsG3638"><svg viewBox="0 0 395.52 70.6176382026899" height="70.6176382026899" width="395.52"><g><svg viewBox="0 0 522.9697415928174 93.3729975797831" height="70.6176382026899" width="395.52"><g><rect width="3.8008925521564274" height="81.07640889706202" x="113.69886853763373" y="6.14829434136054" fill="black" opacity="1" stroke-width="0" stroke="transparent" fill-opacity="1" class="rect-yte-0" rx="1%" id="SvgjsRect3637" data-palette-color="url(#114bd842-b52b-4311-9cb2-13588bd00d4d)"></rect></g><g transform="matrix(1,0,0,1,127.44974159281745,12.90466174944904)"><svg viewBox="0 0 395.52 67.56367408088502" height="67.56367408088502" width="395.52"><g id="SvgjsG3636"><svg viewBox="0 0 395.52 67.56367408088502" height="67.56367408088502" width="395.52" id="SvgjsSvg3635"><g><svg viewBox="0 0 395.52 42.14736145574856" height="42.14736145574856" width="395.52"><g transform="matrix(1,0,0,1,0,0)"><svg width="395.52" viewBox="3.3 -33.48 362.65999999999997 38.66" height="42.14736145574856" data-palette-color="url(#114bd842-b52b-4311-9cb2-13588bd00d4d)"><path d="M37.83-15.73L37.83 0 33.77 0 33.77-15.28Q33.77-17.2 33.29-18.61 32.8-20.03 31.69-20.8 30.58-21.58 28.7-21.58L28.7-21.58Q26.93-21.58 25.63-20.85 24.33-20.13 23.53-18.91 22.73-17.7 22.4-16.15L22.4-16.15 21.78-19.03 22.28-19.03Q22.68-20.6 23.63-21.95 24.58-23.3 26.2-24.13 27.83-24.95 30.23-24.95L30.23-24.95Q32.95-24.95 34.61-23.88 36.27-22.8 37.05-20.74 37.83-18.68 37.83-15.73L37.83-15.73ZM7.35-18.3L7.35 0 3.3 0 3.3-24.4 7.35-24.4 7.18-18.55 7.35-18.3ZM22.58-15.85L22.58 0 18.55 0 18.55-15.28Q18.55-17.2 18.06-18.61 17.57-20.03 16.48-20.8 15.38-21.58 13.5-21.58L13.5-21.58Q11.7-21.58 10.4-20.85 9.1-20.13 8.3-18.89 7.5-17.65 7.18-16.07L7.18-16.07 6.43-18.95 7.33-18.95Q7.7-20.6 8.63-21.96 9.55-23.33 11.14-24.14 12.73-24.95 15-24.95L15-24.95Q18.38-24.95 20.14-23.2 21.9-21.45 22.35-18.1L22.35-18.1Q22.48-17.6 22.53-17.01 22.58-16.43 22.58-15.85L22.58-15.85ZM54.35 0.55L54.35 0.55Q48.77 0.55 45.95-2.18 43.12-4.9 43.12-9.98L43.12-9.98 43.12-14.33Q43.12-19.48 45.75-22.26 48.37-25.05 53.42-25.05L53.42-25.05Q56.82-25.05 59.1-23.79 61.37-22.53 62.52-20.2 63.67-17.88 63.67-14.65L63.67-14.65 63.67-13.75Q63.67-12.95 63.61-12.15 63.55-11.35 63.45-10.58L63.45-10.58 59.72-10.58Q59.77-11.78 59.79-12.85 59.8-13.93 59.8-14.83L59.8-14.83Q59.8-17.05 59.09-18.59 58.37-20.13 56.96-20.94 55.55-21.75 53.42-21.75L53.42-21.75Q50.27-21.75 48.7-19.93 47.12-18.1 47.12-14.7L47.12-14.7 47.12-12.38 47.15-11.88 47.15-9.55Q47.15-8.03 47.6-6.8 48.05-5.58 49.01-4.69 49.97-3.8 51.46-3.34 52.95-2.88 55-2.88L55-2.88Q57.37-2.88 59.42-3.5 61.47-4.13 63.27-5.2L63.27-5.2 62.9-1.7Q61.27-0.68 59.12-0.06 56.97 0.55 54.35 0.55ZM62.6-13.63L62.6-10.58 45.25-10.58 45.25-13.63 62.6-13.63ZM77.15 0.53L77.15 0.53Q72.75 0.53 70.45-2.2 68.15-4.93 68.15-10.15L68.15-10.15 68.15-14.18Q68.15-19.43 70.47-22.19 72.8-24.95 77.32-24.95L77.32-24.95Q79.57-24.95 81.22-24.19 82.87-23.43 83.9-22.05 84.92-20.68 85.27-18.8L85.27-18.8 86.6-18.8 85.4-15.08Q85.32-17.23 84.43-18.69 83.55-20.15 82.03-20.9 80.52-21.65 78.57-21.65L78.57-21.65Q75.47-21.65 73.83-19.85 72.2-18.05 72.2-14.55L72.2-14.55 72.2-9.9Q72.2-6.45 73.83-4.65 75.47-2.85 78.57-2.85L78.57-2.85Q80.42-2.85 81.85-3.56 83.27-4.28 84.21-5.54 85.15-6.8 85.5-8.4L85.5-8.4 86.5-5.5 85.3-5.5Q84.95-3.85 83.96-2.48 82.97-1.1 81.31-0.29 79.65 0.53 77.15 0.53ZM89.35-33.13L89.35 0 85.3 0 85.47-5.9 85.4-7.2 85.4-17.4 85.42-18.25 85.32-25.18 85.32-33.13 89.35-33.13ZM100.07-24.4L100.07 0 96.02 0 96.02-24.4 100.07-24.4ZM98.04-28.4L98.04-28.4Q96.79-28.4 96.18-29.06 95.57-29.73 95.57-30.88L95.57-30.88 95.57-31Q95.57-32.18 96.18-32.83 96.79-33.48 98.04-33.48L98.04-33.48Q99.29-33.48 99.92-32.83 100.54-32.18 100.54-31L100.54-31 100.54-30.88Q100.54-29.7 99.92-29.05 99.29-28.4 98.04-28.4ZM116.17 0.55L116.17 0.55Q110.92 0.55 108.35-2.29 105.79-5.13 105.79-10.33L105.79-10.33 105.79-14.13Q105.79-19.35 108.37-22.16 110.94-24.98 116.17-24.98L116.17-24.98Q117.72-24.98 118.99-24.69 120.27-24.4 121.28-23.94 122.29-23.48 122.99-22.98L122.99-22.98 123.34-19.45Q122.17-20.35 120.55-20.98 118.94-21.6 116.77-21.6L116.77-21.6Q113.27-21.6 111.55-19.66 109.84-17.73 109.84-14.03L109.84-14.03 109.84-10.43Q109.84-6.8 111.55-4.85 113.27-2.9 116.77-2.9L116.77-2.9Q119.02-2.9 120.65-3.53 122.29-4.15 123.57-5.05L123.57-5.05 123.19-1.48Q122.09-0.73 120.32-0.09 118.54 0.55 116.17 0.55ZM146.96-15.8L146.96 0 142.94 0 143.11-5.93 142.96-6.55 142.96-14.33 142.99-15.75Q142.99-18.73 141.48-20.15 139.96-21.58 136.69-21.58L136.69-21.58Q134.06-21.58 131.88-20.83 129.69-20.08 127.99-19.07L127.99-19.07 128.36-22.53Q129.31-23.1 130.63-23.66 131.94-24.23 133.63-24.6 135.31-24.98 137.34-24.98L137.34-24.98Q139.96-24.98 141.8-24.34 143.64-23.7 144.78-22.5 145.91-21.3 146.44-19.6 146.96-17.9 146.96-15.8L146.96-15.8ZM134.54 0.53L134.54 0.53Q130.91 0.53 128.98-1.24 127.04-3 127.04-6.28L127.04-6.28 127.04-7Q127.04-10.38 129.13-12.04 131.21-13.7 135.76-14.35L135.76-14.35 143.49-15.45 143.71-12.5 136.26-11.43Q133.46-11.03 132.26-10.06 131.06-9.1 131.06-7.23L131.06-7.23 131.06-6.83Q131.06-4.9 132.25-3.88 133.44-2.85 135.81-2.85L135.81-2.85Q137.91-2.85 139.41-3.58 140.91-4.3 141.84-5.53 142.76-6.75 143.09-8.25L143.09-8.25 143.71-5.5 142.94-5.5Q142.59-3.9 141.63-2.53 140.66-1.15 138.94-0.31 137.21 0.53 134.54 0.53ZM157.31-33.13L157.31 0 153.29 0 153.29-33.13 157.31-33.13ZM182.01 2L182.01 5.18 162.13 5.18 162.13 2 182.01 2ZM194.31 0.55L194.31 0.55Q191.36 0.55 189.16-0.09 186.96-0.73 185.51-1.48L185.51-1.48 185.13-5.23Q186.96-4.28 189.14-3.58 191.33-2.88 194.11-2.88L194.11-2.88Q196.93-2.88 198.36-3.78 199.78-4.67 199.78-6.45L199.78-6.45 199.78-6.73Q199.78-7.88 199.24-8.63 198.71-9.38 197.31-9.95 195.91-10.53 193.33-11.1L193.33-11.1Q190.26-11.78 188.48-12.69 186.71-13.6 185.94-14.95 185.18-16.3 185.18-18.25L185.18-18.25 185.18-18.48Q185.18-21.68 187.41-23.33 189.63-24.98 194.11-24.98L194.11-24.98Q196.98-24.98 199.09-24.33 201.21-23.68 202.56-22.88L202.56-22.88 202.93-19.45Q201.31-20.4 199.21-21.03 197.11-21.65 194.48-21.65L194.48-21.65Q192.58-21.65 191.41-21.26 190.23-20.88 189.71-20.16 189.18-19.45 189.18-18.45L189.18-18.45 189.18-18.25Q189.18-17.15 189.71-16.39 190.23-15.63 191.59-15.06 192.96-14.5 195.38-13.98L195.38-13.98Q198.51-13.35 200.34-12.48 202.18-11.6 202.98-10.26 203.78-8.93 203.78-6.83L203.78-6.83 203.78-6.4Q203.78-2.95 201.38-1.2 198.98 0.55 194.31 0.55ZM218.08 0.55L218.08 0.55Q212.83 0.55 210.27-2.29 207.7-5.13 207.7-10.33L207.7-10.33 207.7-14.13Q207.7-19.35 210.28-22.16 212.85-24.98 218.08-24.98L218.08-24.98Q219.63-24.98 220.9-24.69 222.18-24.4 223.19-23.94 224.2-23.48 224.9-22.98L224.9-22.98 225.25-19.45Q224.08-20.35 222.47-20.98 220.85-21.6 218.68-21.6L218.68-21.6Q215.18-21.6 213.47-19.66 211.75-17.73 211.75-14.03L211.75-14.03 211.75-10.43Q211.75-6.8 213.47-4.85 215.18-2.9 218.68-2.9L218.68-2.9Q220.93-2.9 222.57-3.53 224.2-4.15 225.48-5.05L225.48-5.05 225.1-1.48Q224-0.73 222.23-0.09 220.45 0.55 218.08 0.55ZM250.75-15.63L250.75 0 246.7 0 246.7-15.18Q246.7-17.15 246.16-18.57 245.63-20 244.41-20.79 243.2-21.58 241.1-21.58L241.1-21.58Q239.18-21.58 237.78-20.85 236.38-20.13 235.51-18.89 234.65-17.65 234.3-16.07L234.3-16.07 233.4-18.95 234.45-18.95Q234.83-20.6 235.83-21.96 236.83-23.33 238.51-24.14 240.2-24.95 242.63-24.95L242.63-24.95Q245.53-24.95 247.31-23.85 249.1-22.75 249.93-20.69 250.75-18.63 250.75-15.63L250.75-15.63ZM234.43-17.85L234.43 0 230.38 0 230.38-33.13 234.4-33.13 234.4-25.18 234.28-18.18 234.43-17.85ZM267.27 0.55L267.27 0.55Q261.7 0.55 258.87-2.18 256.05-4.9 256.05-9.98L256.05-9.98 256.05-14.33Q256.05-19.48 258.67-22.26 261.3-25.05 266.35-25.05L266.35-25.05Q269.75-25.05 272.02-23.79 274.3-22.53 275.45-20.2 276.6-17.88 276.6-14.65L276.6-14.65 276.6-13.75Q276.6-12.95 276.54-12.15 276.47-11.35 276.37-10.58L276.37-10.58 272.65-10.58Q272.7-11.78 272.71-12.85 272.72-13.93 272.72-14.83L272.72-14.83Q272.72-17.05 272.01-18.59 271.3-20.13 269.89-20.94 268.47-21.75 266.35-21.75L266.35-21.75Q263.2-21.75 261.62-19.93 260.05-18.1 260.05-14.7L260.05-14.7 260.05-12.38 260.07-11.88 260.07-9.55Q260.07-8.03 260.52-6.8 260.97-5.58 261.94-4.69 262.9-3.8 264.39-3.34 265.87-2.88 267.92-2.88L267.92-2.88Q270.3-2.88 272.35-3.5 274.4-4.13 276.2-5.2L276.2-5.2 275.82-1.7Q274.2-0.68 272.05-0.06 269.9 0.55 267.27 0.55ZM275.52-13.63L275.52-10.58 258.17-10.58 258.17-13.63 275.52-13.63ZM290.07 0.53L290.07 0.53Q285.67 0.53 283.37-2.2 281.07-4.93 281.07-10.15L281.07-10.15 281.07-14.18Q281.07-19.43 283.4-22.19 285.72-24.95 290.25-24.95L290.25-24.95Q292.5-24.95 294.15-24.19 295.8-23.43 296.82-22.05 297.85-20.68 298.2-18.8L298.2-18.8 299.52-18.8 298.32-15.08Q298.25-17.23 297.36-18.69 296.47-20.15 294.96-20.9 293.45-21.65 291.5-21.65L291.5-21.65Q288.4-21.65 286.76-19.85 285.12-18.05 285.12-14.55L285.12-14.55 285.12-9.9Q285.12-6.45 286.76-4.65 288.4-2.85 291.5-2.85L291.5-2.85Q293.35-2.85 294.77-3.56 296.2-4.28 297.13-5.54 298.07-6.8 298.42-8.4L298.42-8.4 299.42-5.5 298.22-5.5Q297.87-3.85 296.88-2.48 295.9-1.1 294.23-0.29 292.57 0.53 290.07 0.53ZM302.27-33.13L302.27 0 298.22 0 298.4-5.9 298.32-7.2 298.32-17.4 298.35-18.25 298.25-25.18 298.25-33.13 302.27-33.13ZM308.57-8.78L308.57-24.4 312.59-24.4 312.59-9.22Q312.59-7.3 313.13-5.86 313.67-4.42 314.89-3.64 316.12-2.85 318.19-2.85L318.19-2.85Q320.14-2.85 321.54-3.56 322.94-4.28 323.83-5.53 324.72-6.78 325.04-8.35L325.04-8.35 325.77-5.48 324.89-5.48Q324.52-3.83 323.52-2.46 322.52-1.1 320.83-0.29 319.14 0.53 316.67 0.53L316.67 0.53Q313.79 0.53 312.01-0.56 310.22-1.65 309.39-3.74 308.57-5.83 308.57-8.78L308.57-8.78ZM324.87-6.1L324.87-24.4 328.92-24.4 328.92 0 324.87 0 325.04-5.85 324.87-6.1ZM339.67-33.13L339.67 0 335.64 0 335.64-33.13 339.67-33.13ZM356.64 0.55L356.64 0.55Q351.06 0.55 348.24-2.18 345.41-4.9 345.41-9.98L345.41-9.98 345.41-14.33Q345.41-19.48 348.04-22.26 350.66-25.05 355.71-25.05L355.71-25.05Q359.11-25.05 361.39-23.79 363.66-22.53 364.81-20.2 365.96-17.88 365.96-14.65L365.96-14.65 365.96-13.75Q365.96-12.95 365.9-12.15 365.84-11.35 365.74-10.58L365.74-10.58 362.01-10.58Q362.06-11.78 362.08-12.85 362.09-13.93 362.09-14.83L362.09-14.83Q362.09-17.05 361.38-18.59 360.66-20.13 359.25-20.94 357.84-21.75 355.71-21.75L355.71-21.75Q352.56-21.75 350.99-19.93 349.41-18.1 349.41-14.7L349.41-14.7 349.41-12.38 349.44-11.88 349.44-9.55Q349.44-8.03 349.89-6.8 350.34-5.58 351.3-4.69 352.26-3.8 353.75-3.34 355.24-2.88 357.29-2.88L357.29-2.88Q359.66-2.88 361.71-3.5 363.76-4.13 365.56-5.2L365.56-5.2 365.19-1.7Q363.56-0.68 361.41-0.06 359.26 0.55 356.64 0.55ZM364.89-13.63L364.89-10.58 347.54-10.58 347.54-13.63 364.89-13.63Z" opacity="1" transform="matrix(1,0,0,1,0,0)" fill="black" class="wordmark-text-0" id="SvgjsPath3634"></path></svg></g></svg></g><g transform="matrix(1,0,0,1,0,52.09734195877586)"><svg viewBox="0 0 232.209792 15.466332122109158" height="15.466332122109158" width="232.209792"><g transform="matrix(1,0,0,1,0,0)"><svg width="232.209792" viewBox="3.34 -33.15 501.39000000000004 33.39" height="15.466332122109158" data-palette-color="url(#f958dedc-8566-435e-a5fa-7d29bb687982)"><path d="M27.03 0L24.71-26.83 18.04-10.69 15.23-10.69 8.33-26.88 6.23 0 3.34 0 5.79-31.35 9.25-31.35 16.63-14.21 23.8-31.35 27.25-31.35 29.91 0 27.03 0ZM45.65-21.85L45.65-21.85Q42.58-21.85 40.94-19.71 39.3-17.58 39.01-13.65L39.01-13.65 51.39-13.65 51.39-14.87Q51.39-18.07 49.84-19.96 48.29-21.85 45.65-21.85ZM46.07-2.34L46.07-2.34Q49.83-2.34 52.9-4.3L52.9-4.3 53.85-1.83Q52.19-0.81 50.14-0.28 48.09 0.24 46.24 0.24L46.24 0.24Q41.31 0.24 38.6-2.73 35.89-5.71 35.89-12.11L35.89-12.11Q35.89-18.24 38.52-21.33 41.16-24.41 45.63-24.41L45.63-24.41Q49.66-24.41 51.98-21.78 54.29-19.14 54.29-14.75L54.29-14.75Q54.29-13.75 54.1-11.45L54.1-11.45 39.01-11.45Q39.04-9.28 39.45-7.63 39.87-5.98 40.5-4.99 41.14-4 42.08-3.39 43.02-2.78 43.97-2.56 44.92-2.34 46.07-2.34ZM74.9-22.53L74.9-33.15 78.02-33.15 78.02 0 75.48 0 75.24-1.22Q72.5 0.24 69.33 0.24L69.33 0.24Q67.08 0.24 65.33-0.43 63.57-1.1 62.21-2.53 60.86-3.96 60.14-6.36 59.42-8.76 59.42-12.04L59.42-12.04Q59.42-14.6 59.91-16.69 60.4-18.77 61.24-20.19 62.08-21.61 63.25-22.57 64.42-23.54 65.77-23.97 67.11-24.41 68.6-24.41L68.6-24.41Q70.26-24.41 71.7-24.02 73.14-23.63 74.9-22.53L74.9-22.53ZM74.9-3.34L74.9-3.34 74.9-19.75Q72.9-20.9 71.56-21.37 70.23-21.85 68.99-21.85L68.99-21.85Q66.01-21.85 64.28-19.37 62.54-16.89 62.54-11.99L62.54-11.99Q62.54-2.34 69.77-2.34L69.77-2.34 70.45-2.34Q72.75-2.34 74.9-3.34ZM88.35-30.86L88.35-30.86Q88.35-31.88 88.98-32.5 89.62-33.11 90.57-33.11L90.57-33.11Q91.57-33.11 92.17-32.54 92.77-31.98 92.77-30.91 92.77-29.83 92.17-29.27 91.57-28.71 90.57-28.71L90.57-28.71Q89.59-28.71 88.97-29.28 88.35-29.86 88.35-30.86ZM89.01-21.85L84.32-21.85 84.32-24.05 92.13-24.05 92.13-2.2 96.82-2.2 96.82 0 84.32 0 84.32-2.2 89.01-2.2 89.01-21.85ZM116.27-4.15L116.27-4.15 117.45-1.93Q114.47 0.24 110.34 0.24L110.34 0.24Q106.07 0.24 103.33-2.95 100.6-6.15 100.6-12.08L100.6-12.08Q100.6-24.41 110.07-24.41L110.07-24.41Q113.39-24.41 116.49-22.95L116.49-22.95 116.49-16.65 114-16.41 114-21.29Q112.39-21.92 110.02-21.92L110.02-21.92Q108.22-21.92 106.96-21.22 105.7-20.51 105.01-19.14 104.31-17.77 104.02-16.05 103.73-14.33 103.73-12.04L103.73-12.04Q103.73-7.37 105.62-4.83 107.51-2.29 110.68-2.29L110.68-2.29Q113.54-2.29 116.27-4.15ZM124.65-6.79L124.65-6.79Q124.65-2.25 129.92-2.25L129.92-2.25Q131.48-2.25 133.11-2.71 134.73-3.17 135.78-3.86L135.78-3.86 135.78-11.55 134.41-11.55Q133.24-11.55 132.26-11.49 131.29-11.43 130.09-11.28 128.89-11.13 127.99-10.79 127.09-10.45 126.29-9.95 125.5-9.45 125.07-8.64 124.65-7.84 124.65-6.79ZM123.72-20.58L123.11-23Q127.43-24.41 130.63-24.41L130.63-24.41Q132.43-24.41 133.87-23.91 135.31-23.41 136.45-22.35 137.59-21.29 138.21-19.45 138.83-17.6 138.83-15.06L138.83-15.06 138.83 0 136.58 0 136.1-1.61Q135.22-0.9 133.26-0.33 131.31 0.24 129.43 0.24L129.43 0.24Q125.92 0.24 123.82-1.59 121.72-3.42 121.72-6.93L121.72-6.93Q121.72-8.06 122.07-9.02 122.42-9.99 123.29-10.89 124.16-11.79 125.49-12.44 126.82-13.09 128.89-13.46 130.97-13.84 133.63-13.84L133.63-13.84 135.78-13.84 135.78-14.62Q135.75-18.63 134.37-20.24 133-21.85 130.48-21.85L130.48-21.85Q130.11-21.85 129.69-21.81 129.26-21.78 128.94-21.74 128.63-21.7 128.08-21.59 127.53-21.48 127.27-21.45 127.01-21.41 126.35-21.25 125.7-21.09 125.52-21.04 125.35-21 124.58-20.8 123.82-20.61 123.72-20.58L123.72-20.58ZM144.08-30.93L144.08-33.15 152.6-33.15 152.6-2.2 157.75-2.2 157.75 0 144.03 0 144.03-2.2 149.47-2.2 149.47-30.93 144.08-30.93ZM178.91-33.15L182.04-33.15 182.04-22.53Q185.09-24.41 188.68-24.41L188.68-24.41Q192.51-24.41 194.69-21.39 196.88-18.36 196.88-12.04L196.88-12.04Q196.88-5.49 194.66-2.62 192.44 0.24 187.94 0.24L187.94 0.24Q184.43 0.24 181.69-1.22L181.69-1.22 181.45 0 178.91 0 178.91-33.15ZM182.04-19.75L182.04-3.34Q184.18-2.34 186.8-2.34L186.8-2.34 187.5-2.34Q190.82-2.34 192.29-4.58 193.75-6.81 193.75-11.99L193.75-11.99Q193.75-17.07 192.45-19.46 191.14-21.85 188.29-21.85L188.29-21.85Q185.67-21.85 182.04-19.75L182.04-19.75ZM217.02-3.98L217.02-3.98 217.02-24.05 220.14-24.05 220.14 0 217.58 0 217.36-1.56Q215.04-0.46 213.42-0.11 211.79 0.24 209.82 0.24L209.82 0.24Q206.11 0.24 204.37-1.71 202.64-3.66 202.64-7.84L202.64-7.84 202.64-24.05 205.76-24.05 205.76-7.71Q205.76-4.79 206.73-3.56 207.69-2.34 210.13-2.34L210.13-2.34Q211.35-2.34 212.12-2.4 212.89-2.47 214.27-2.84 215.65-3.22 217.02-3.98ZM226.24-1.68L227.25-4.08Q228.47-3.39 230.41-2.87 232.35-2.34 234.13-2.34L234.13-2.34Q236.38-2.34 237.76-3.31 239.14-4.27 239.14-6.47L239.14-6.47Q239.14-8.18 238.35-9.02 237.57-9.86 235.94-10.38L235.94-10.38 232.27-11.52Q230.81-11.99 229.87-12.44 228.93-12.89 228.12-13.61 227.32-14.33 226.95-15.39 226.59-16.46 226.59-17.94L226.59-17.94Q226.59-21.22 228.83-22.81 231.08-24.41 234.5-24.41 237.91-24.41 240.99-23L240.99-23 240.06-20.65Q237.55-21.85 234.72-21.85L234.72-21.85Q232.45-21.85 231.01-20.89 229.56-19.92 229.56-17.82L229.56-17.82Q229.56-16.26 230.36-15.63 231.15-14.99 233.2-14.33L233.2-14.33 236.79-13.18Q238.77-12.55 239.88-11.8 240.99-11.06 241.59-9.8 242.19-8.54 242.19-6.62L242.19-6.62Q242.19-4.79 241.55-3.42 240.92-2.05 239.78-1.27 238.65-0.49 237.28-0.12 235.91 0.24 234.28 0.24L234.28 0.24Q230.22 0.24 226.24-1.68L226.24-1.68ZM250.95-30.86L250.95-30.86Q250.95-31.88 251.58-32.5 252.22-33.11 253.17-33.11L253.17-33.11Q254.17-33.11 254.77-32.54 255.37-31.98 255.37-30.91 255.37-29.83 254.77-29.27 254.17-28.71 253.17-28.71L253.17-28.71Q252.19-28.71 251.57-29.28 250.95-29.86 250.95-30.86ZM251.61-21.85L246.92-21.85 246.92-24.05 254.73-24.05 254.73-2.2 259.42-2.2 259.42 0 246.92 0 246.92-2.2 251.61-2.2 251.61-21.85ZM267.11-20.07L267.11-20.07 267.11 0 263.98 0 263.98-24.05 266.55-24.05 266.77-22.49Q269.16-23.61 270.77-24.01 272.38-24.41 274.24-24.41L274.24-24.41Q277.95-24.41 279.72-22.39 281.49-20.36 281.49-16.19L281.49-16.19 281.49 0 278.36 0 278.36-16.31Q278.36-19.29 277.42-20.57 276.48-21.85 274.07-21.85L274.07-21.85Q270.36-21.85 267.11-20.07ZM297.01-21.85L297.01-21.85Q293.94-21.85 292.3-19.71 290.67-17.58 290.37-13.65L290.37-13.65 302.75-13.65 302.75-14.87Q302.75-18.07 301.2-19.96 299.65-21.85 297.01-21.85ZM297.43-2.34L297.43-2.34Q301.19-2.34 304.26-4.3L304.26-4.3 305.22-1.83Q303.56-0.81 301.51-0.28 299.45 0.24 297.6 0.24L297.6 0.24Q292.67 0.24 289.96-2.73 287.25-5.71 287.25-12.11L287.25-12.11Q287.25-18.24 289.88-21.33 292.52-24.41 296.99-24.41L296.99-24.41Q301.02-24.41 303.34-21.78 305.66-19.14 305.66-14.75L305.66-14.75Q305.66-13.75 305.46-11.45L305.46-11.45 290.37-11.45Q290.4-9.28 290.81-7.63 291.23-5.98 291.86-4.99 292.5-4 293.44-3.39 294.38-2.78 295.33-2.56 296.28-2.34 297.43-2.34ZM310.8-1.68L311.81-4.08Q313.03-3.39 314.97-2.87 316.91-2.34 318.69-2.34L318.69-2.34Q320.94-2.34 322.32-3.31 323.7-4.27 323.7-6.47L323.7-6.47Q323.7-8.18 322.91-9.02 322.13-9.86 320.5-10.38L320.5-10.38 316.84-11.52Q315.37-11.99 314.43-12.44 313.49-12.89 312.68-13.61 311.88-14.33 311.51-15.39 311.15-16.46 311.15-17.94L311.15-17.94Q311.15-21.22 313.39-22.81 315.64-24.41 319.06-24.41 322.47-24.41 325.55-23L325.55-23 324.62-20.65Q322.11-21.85 319.28-21.85L319.28-21.85Q317.01-21.85 315.57-20.89 314.13-19.92 314.13-17.82L314.13-17.82Q314.13-16.26 314.92-15.63 315.71-14.99 317.76-14.33L317.76-14.33 321.35-13.18Q323.33-12.55 324.44-11.8 325.55-11.06 326.15-9.8 326.75-8.54 326.75-6.62L326.75-6.62Q326.75-4.79 326.11-3.42 325.48-2.05 324.34-1.27 323.21-0.49 321.84-0.12 320.47 0.24 318.84 0.24L318.84 0.24Q314.78 0.24 310.8-1.68L310.8-1.68ZM331.26-1.68L332.26-4.08Q333.48-3.39 335.42-2.87 337.36-2.34 339.15-2.34L339.15-2.34Q341.39-2.34 342.77-3.31 344.15-4.27 344.15-6.47L344.15-6.47Q344.15-8.18 343.37-9.02 342.59-9.86 340.95-10.38L340.95-10.38 337.29-11.52Q335.83-11.99 334.89-12.44 333.95-12.89 333.14-13.61 332.34-14.33 331.97-15.39 331.6-16.46 331.6-17.94L331.6-17.94Q331.6-21.22 333.85-22.81 336.1-24.41 339.51-24.41 342.93-24.41 346.01-23L346.01-23 345.08-20.65Q342.57-21.85 339.73-21.85L339.73-21.85Q337.46-21.85 336.02-20.89 334.58-19.92 334.58-17.82L334.58-17.82Q334.58-16.26 335.38-15.63 336.17-14.99 338.22-14.33L338.22-14.33 341.81-13.18Q343.79-12.55 344.9-11.8 346.01-11.06 346.61-9.8 347.2-8.54 347.2-6.62L347.2-6.62Q347.2-4.79 346.57-3.42 345.93-2.05 344.8-1.27 343.66-0.49 342.3-0.12 340.93 0.24 339.29 0.24L339.29 0.24Q335.24 0.24 331.26-1.68L331.26-1.68ZM377.11 0.24L377.11 0.24Q375.15 0.2 373.9-0.39 372.64-0.98 371.93-2.23 371.22-3.49 370.95-5.19 370.69-6.88 370.69-9.47L370.69-9.47 370.69-21.85 366.95-21.85 366.95-24.05 370.78-24.05 371.39-30.93 373.81-30.93 373.81-24.05 381.33-24.05 381.33-21.85 373.81-21.85 373.81-9.42Q373.81-7.08 374.07-5.62 374.32-4.15 374.92-3.45 375.52-2.76 376.18-2.55 376.84-2.34 377.94-2.34L377.94-2.34Q380.45-2.34 381.6-2.51L381.6-2.51 381.72 0Q379.77 0.24 377.11 0.24ZM390.24-24.05L390.36-21.95Q391.8-22.92 394.01-23.63 396.22-24.34 398.08-24.41L398.08-24.41 398.08-21.8Q395.95-21.8 393.77-21.15 391.58-20.51 390.38-19.63L390.38-19.63 390.38 0 387.26 0 387.26-24.05 390.24-24.05ZM405.18-6.79L405.18-6.79Q405.18-2.25 410.45-2.25L410.45-2.25Q412.01-2.25 413.64-2.71 415.26-3.17 416.31-3.86L416.31-3.86 416.31-11.55 414.94-11.55Q413.77-11.55 412.79-11.49 411.82-11.43 410.62-11.28 409.43-11.13 408.52-10.79 407.62-10.45 406.83-9.95 406.03-9.45 405.6-8.64 405.18-7.84 405.18-6.79ZM404.25-20.58L403.64-23Q407.96-24.41 411.16-24.41L411.16-24.41Q412.97-24.41 414.41-23.91 415.85-23.41 416.98-22.35 418.12-21.29 418.74-19.45 419.36-17.6 419.36-15.06L419.36-15.06 419.36 0 417.12 0 416.63-1.61Q415.75-0.9 413.8-0.33 411.84 0.24 409.96 0.24L409.96 0.24Q406.45 0.24 404.35-1.59 402.25-3.42 402.25-6.93L402.25-6.93Q402.25-8.06 402.6-9.02 402.96-9.99 403.82-10.89 404.69-11.79 406.02-12.44 407.35-13.09 409.43-13.46 411.5-13.84 414.16-13.84L414.16-13.84 416.31-13.84 416.31-14.62Q416.29-18.63 414.91-20.24 413.53-21.85 411.01-21.85L411.01-21.85Q410.65-21.85 410.22-21.81 409.79-21.78 409.47-21.74 409.16-21.7 408.61-21.59 408.06-21.48 407.8-21.45 407.55-21.41 406.89-21.25 406.23-21.09 406.06-21.04 405.89-21 405.12-20.8 404.35-20.61 404.25-20.58L404.25-20.58ZM441.16-4.15L441.16-4.15 442.33-1.93Q439.35 0.24 435.23 0.24L435.23 0.24Q430.96 0.24 428.22-2.95 425.49-6.15 425.49-12.08L425.49-12.08Q425.49-24.41 434.96-24.41L434.96-24.41Q438.28-24.41 441.38-22.95L441.38-22.95 441.38-16.65 438.89-16.41 438.89-21.29Q437.28-21.92 434.91-21.92L434.91-21.92Q433.1-21.92 431.85-21.22 430.59-20.51 429.89-19.14 429.2-17.77 428.91-16.05 428.61-14.33 428.61-12.04L428.61-12.04Q428.61-7.37 430.5-4.83 432.4-2.29 435.57-2.29L435.57-2.29Q438.43-2.29 441.16-4.15ZM450.48 0L447.36 0 447.36-33.15 450.48-33.15 450.48-12.06Q457.93-20.02 461.5-24.05L461.5-24.05 465.23-24.05 455.07-12.74 466.11 0 462.5 0Q460.4-2.34 458.11-4.96 455.83-7.57 454.59-9.03L454.59-9.03 453.34-10.47 452.71-11.18 450.48-9.2 450.48 0ZM479.22-21.85L479.22-21.85Q476.14-21.85 474.51-19.71 472.87-17.58 472.58-13.65L472.58-13.65 484.95-13.65 484.95-14.87Q484.95-18.07 483.4-19.96 481.85-21.85 479.22-21.85ZM479.63-2.34L479.63-2.34Q483.39-2.34 486.47-4.3L486.47-4.3 487.42-1.83Q485.76-0.81 483.71-0.28 481.66 0.24 479.8 0.24L479.8 0.24Q474.87 0.24 472.16-2.73 469.45-5.71 469.45-12.11L469.45-12.11Q469.45-18.24 472.09-21.33 474.73-24.41 479.19-24.41L479.19-24.41Q483.22-24.41 485.54-21.78 487.86-19.14 487.86-14.75L487.86-14.75Q487.86-13.75 487.66-11.45L487.66-11.45 472.58-11.45Q472.6-9.28 473.02-7.63 473.43-5.98 474.07-4.99 474.7-4 475.64-3.39 476.58-2.78 477.53-2.56 478.49-2.34 479.63-2.34ZM496.89-24.05L497.01-21.95Q498.45-22.92 500.66-23.63 502.87-24.34 504.73-24.41L504.73-24.41 504.73-21.8Q502.6-21.8 500.42-21.15 498.23-20.51 497.04-19.63L497.04-19.63 497.04 0 493.91 0 493.91-24.05 496.89-24.05Z" opacity="1" transform="matrix(1,0,0,1,0,0)" fill="black" class="slogan-text-1" id="SvgjsPath3633"></path></svg></g></svg></g></svg></g></svg></g><g><svg viewBox="0 0 103.74888803460644 93.3729975797831" height="93.3729975797831" width="103.74888803460644"><g><svg xmlns="http://www.w3.org/2000/svg" xmlns:xlink="http://www.w3.org/1999/xlink" version="1.1" x="0" y="0" viewBox="5.413 9.5 90.001 81.00003107864575" enable-background="new 0 0 100 100" xml:space="preserve" height="93.3729975797831" width="103.74888803460644" class="icon-icon-0" data-fill-palette-color="accent" id="SvgjsSvg3632"><g fill="black"><path d="M93.398 77.222H7.429C6.316 77.222 5.413 76.33 5.413 75.23V11.491C5.413 10.392 6.315 9.5 7.429 9.5H93.399C94.512 9.5 95.414 10.393 95.414 11.491V75.229A2.005 2.005 0 0 1 93.398 77.222M9.443 73.237H91.382V13.483H9.443z" fill="black"></path></g><g fill="black"><path d="M83.995 67.927H16.831A2.004 2.004 0 0 1 14.816 65.934V20.786C14.816 19.687 15.718 18.795 16.831 18.795H83.995C85.107 18.795 86.011 19.688 86.011 20.786V65.933A2.006 2.006 0 0 1 83.995 67.927M18.846 63.942H81.98V22.778H18.846z" fill="black"></path></g><g fill="black"><path d="M59.815 90.5H41.011C39.899 90.5 38.996 89.607 38.996 88.509V75.229C38.996 74.129 39.898 73.237 41.011 73.237H59.816C60.929 73.237 61.832 74.13 61.832 75.229V88.508A2.006 2.006 0 0 1 59.815 90.5M43.025 86.517H57.8V77.222H43.025z" fill="black"></path></g><g fill="black"><rect x="16.831" y="86.517" width="67.164" height="3.983" fill="black"></rect></g><g fill="black"><path d="M55.787 59.959H45.039C43.928 59.959 43.025 59.067 43.025 57.968V50.664H35.636C34.525 50.664 33.621 49.772 33.621 48.672V38.049C33.621 36.95 34.524 36.058 35.636 36.058H43.025V28.754C43.025 27.654 43.927 26.763 45.039 26.763H55.787C56.898 26.763 57.801 27.655 57.801 28.754V36.058H65.19C66.301 36.058 67.205 36.951 67.205 38.049V48.672A2.004 2.004 0 0 1 65.19 50.664H57.801V57.968C57.801 59.067 56.898 59.959 55.787 59.959M47.055 55.976H53.773V48.672C53.773 47.572 54.674 46.681 55.788 46.681H63.176V40.041H55.788A2.004 2.004 0 0 1 53.773 38.049V30.746H47.055V38.049C47.055 39.149 46.153 40.041 45.039 40.041H37.651V46.681H45.039C46.152 46.681 47.055 47.573 47.055 48.672z" fill="black"></path></g></svg></g></svg></g></svg></g><defs><mask></mask></defs></svg><rect width="395.52" height="70.6176382026899" fill="black" stroke="none" visibility="hidden"></rect></g></mask></svg><rect width="395.52" height="70.6176382026899" fill="black" stroke="none" visibility="hidden"></rect></g></mask><linearGradient x1="0.054" x2="0.941" y1="0.5" y2="0.5" id="f958dedc-8566-435e-a5fa-7d29bb687982"><stop stop-color="#26282a" offset="0"></stop><stop stop-color="#9e9fa0" offset="0.498"></stop><stop stop-color="#26282a" offset="1"></stop></linearGradient><rect width="395.52" height="70.6176382026899" fill="#ffffff" mask="url(#24801f4a-59c3-4778-8398-a6c10decb44b)" data-fill-palette-color="secondary"></rect></svg><rect width="395.52" height="70.6176382026899" fill="none" stroke="none" visibility="hidden"></rect></g></svg></g></svg>