<svg xmlns="http://www.w3.org/2000/svg" version="1.1" xmlns:xlink="http://www.w3.org/1999/xlink" xmlns:svgjs="http://svgjs.dev/svgjs" width="128" height="128" viewBox="0 0 128 128"><g transform="matrix(0.8046875,0,0,0.8046875,12.223319238199487,18.099011955177787)"><svg viewBox="0 0 96 86" data-background-color="#dfdad6" preserveAspectRatio="xMidYMid meet" height="114" width="128" xmlns="http://www.w3.org/2000/svg" xmlns:xlink="http://www.w3.org/1999/xlink"><g id="tight-bounds" transform="matrix(1,0,0,1,0.2578772148820292,0.03168765094557102)"><svg viewBox="0 0 95.481 85.9319781715778" height="85.9319781715778" width="95.481"><g><svg viewBox="0 0 95.481 85.9319781715778" height="85.9319781715778" width="95.481"><g><svg viewBox="0 0 95.481 85.9319781715778" height="85.9319781715778" width="95.481"><g id="textblocktransform"><svg viewBox="0 0 95.481 85.9319781715778" height="85.9319781715778" width="95.481" id="textblock"><g><svg viewBox="0 0 95.481 85.9319781715778" height="85.9319781715778" width="95.481"><g><svg viewBox="0 0 95.481 85.9319781715778" height="85.9319781715778" width="95.481"><g><svg xmlns="http://www.w3.org/2000/svg" xmlns:xlink="http://www.w3.org/1999/xlink" version="1.1" x="0" y="0" viewBox="5.413 9.5 90.001 81.00003107864575" enable-background="new 0 0 100 100" xml:space="preserve" height="85.9319781715778" width="95.481" class="icon-icon-0" data-fill-palette-color="accent" id="icon-0"><g fill="#6e6e6e" data-fill-palette-color="accent"><path d="M93.398 77.222H7.429C6.316 77.222 5.413 76.33 5.413 75.23V11.491C5.413 10.392 6.315 9.5 7.429 9.5H93.399C94.512 9.5 95.414 10.393 95.414 11.491V75.229A2.005 2.005 0 0 1 93.398 77.222M9.443 73.237H91.382V13.483H9.443z" fill="#ffffff" data-fill-palette-color="accent"></path></g><g fill="#6e6e6e" data-fill-palette-color="accent"><path d="M83.995 67.927H16.831A2.004 2.004 0 0 1 14.816 65.934V20.786C14.816 19.687 15.718 18.795 16.831 18.795H83.995C85.107 18.795 86.011 19.688 86.011 20.786V65.933A2.006 2.006 0 0 1 83.995 67.927M18.846 63.942H81.98V22.778H18.846z" fill="#ffffff" data-fill-palette-color="accent"></path></g><g fill="#6e6e6e" data-fill-palette-color="accent"><path d="M59.815 90.5H41.011C39.899 90.5 38.996 89.607 38.996 88.509V75.229C38.996 74.129 39.898 73.237 41.011 73.237H59.816C60.929 73.237 61.832 74.13 61.832 75.229V88.508A2.006 2.006 0 0 1 59.815 90.5M43.025 86.517H57.8V77.222H43.025z" fill="#ffffff" data-fill-palette-color="accent"></path></g><g fill="#6e6e6e" data-fill-palette-color="accent"><rect x="16.831" y="86.517" width="67.164" height="3.983" fill="#ffffff" data-fill-palette-color="accent"></rect></g><g fill="#6e6e6e" data-fill-palette-color="accent"><path d="M55.787 59.959H45.039C43.928 59.959 43.025 59.067 43.025 57.968V50.664H35.636C34.525 50.664 33.621 49.772 33.621 48.672V38.049C33.621 36.95 34.524 36.058 35.636 36.058H43.025V28.754C43.025 27.654 43.927 26.763 45.039 26.763H55.787C56.898 26.763 57.801 27.655 57.801 28.754V36.058H65.19C66.301 36.058 67.205 36.951 67.205 38.049V48.672A2.004 2.004 0 0 1 65.19 50.664H57.801V57.968C57.801 59.067 56.898 59.959 55.787 59.959M47.055 55.976H53.773V48.672C53.773 47.572 54.674 46.681 55.788 46.681H63.176V40.041H55.788A2.004 2.004 0 0 1 53.773 38.049V30.746H47.055V38.049C47.055 39.149 46.153 40.041 45.039 40.041H37.651V46.681H45.039C46.152 46.681 47.055 47.573 47.055 48.672z" fill="#ffffff" data-fill-palette-color="accent"></path></g></svg></g></svg></g></svg></g></svg></g></svg></g></svg></g><defs></defs></svg><rect width="95.481" height="85.9319781715778" fill="none" stroke="none" visibility="hidden"></rect></g></svg></g></svg>