<svg xmlns="http://www.w3.org/2000/svg" version="1.1" xmlns:xlink="http://www.w3.org/1999/xlink" xmlns:svgjs="http://svgjs.dev/svgjs" width="2000" height="383" viewBox="0 0 2000 383"><g transform="matrix(1,0,0,1,-1.2121212121212466,-2.2031239038626893)"><svg viewBox="0 0 396 76" data-background-color="#dfdad6" preserveAspectRatio="xMidYMid meet" height="383" width="2000" xmlns="http://www.w3.org/2000/svg" xmlns:xlink="http://www.w3.org/1999/xlink"><g id="tight-bounds" transform="matrix(1,0,0,1,0.2400000000000091,0.43717341173254454)"><svg viewBox="0 0 395.52 75.12565317653488" height="75.12565317653488" width="395.52"><g><svg viewBox="0 0 531.3644424221197 100.9281472788911" height="75.12565317653488" width="395.52"><g></g><g transform="matrix(1,0,0,1,135.84444242211976,13.94882498572229)"><svg viewBox="0 0 395.52 73.03049730744652" height="73.03049730744652" width="395.52"><g id="textblocktransform"><svg viewBox="0 0 395.52 73.03049730744652" height="73.03049730744652" width="395.52" id="textblock"><g><svg viewBox="0 0 395.52 42.14736145574856" height="42.14736145574856" width="395.52"><g transform="matrix(1,0,0,1,0,0)"><svg width="395.52" viewBox="3.3 -33.48 362.65999999999997 38.66" height="42.14736145574856" data-palette-color="url(#60b0f2a0-b82e-497e-9dcf-7ebd8746956d)"></svg></g></svg></g><g transform="matrix(1,0,0,1,0,52.09734195877586)"><svg viewBox="0 0 169.0848 20.933155348670667" height="20.933155348670667" width="169.0848"><g transform="matrix(1,0,0,1,0,0)"><svg width="169.0848" viewBox="2.88 -33.15 272.7 33.760000000000005" height="20.933155348670667" data-palette-color="url(#8e7c58a1-893a-44ae-b07e-9ae59a23d55f)"></svg></g></svg></g></svg></g></svg></g><g><svg viewBox="0 0 112.14358886390873 100.9281472788911" height="100.9281472788911" width="112.14358886390873"><g><svg xmlns="http://www.w3.org/2000/svg" xmlns:xlink="http://www.w3.org/1999/xlink" version="1.1" x="0" y="0" viewBox="5.413 9.5 90.001 81.00003107864575" enable-background="new 0 0 100 100" xml:space="preserve" height="100.9281472788911" width="112.14358886390873" class="icon-icon-0" data-fill-palette-color="accent" id="icon-0"><g fill="#6e6e6e" data-fill-palette-color="accent"><path d="M93.398 77.222H7.429C6.316 77.222 5.413 76.33 5.413 75.23V11.491C5.413 10.392 6.315 9.5 7.429 9.5H93.399C94.512 9.5 95.414 10.393 95.414 11.491V75.229A2.005 2.005 0 0 1 93.398 77.222M9.443 73.237H91.382V13.483H9.443z" fill="#ffffff" data-fill-palette-color="accent"></path></g><g fill="#6e6e6e" data-fill-palette-color="accent"><path d="M83.995 67.927H16.831A2.004 2.004 0 0 1 14.816 65.934V20.786C14.816 19.687 15.718 18.795 16.831 18.795H83.995C85.107 18.795 86.011 19.688 86.011 20.786V65.933A2.006 2.006 0 0 1 83.995 67.927M18.846 63.942H81.98V22.778H18.846z" fill="#ffffff" data-fill-palette-color="accent"></path></g><g fill="#6e6e6e" data-fill-palette-color="accent"><path d="M59.815 90.5H41.011C39.899 90.5 38.996 89.607 38.996 88.509V75.229C38.996 74.129 39.898 73.237 41.011 73.237H59.816C60.929 73.237 61.832 74.13 61.832 75.229V88.508A2.006 2.006 0 0 1 59.815 90.5M43.025 86.517H57.8V77.222H43.025z" fill="#ffffff" data-fill-palette-color="accent"></path></g><g fill="#6e6e6e" data-fill-palette-color="accent"><rect x="16.831" y="86.517" width="67.164" height="3.983" fill="#ffffff" data-fill-palette-color="accent"></rect></g><g fill="#6e6e6e" data-fill-palette-color="accent"><path d="M55.787 59.959H45.039C43.928 59.959 43.025 59.067 43.025 57.968V50.664H35.636C34.525 50.664 33.621 49.772 33.621 48.672V38.049C33.621 36.95 34.524 36.058 35.636 36.058H43.025V28.754C43.025 27.654 43.927 26.763 45.039 26.763H55.787C56.898 26.763 57.801 27.655 57.801 28.754V36.058H65.19C66.301 36.058 67.205 36.951 67.205 38.049V48.672A2.004 2.004 0 0 1 65.19 50.664H57.801V57.968C57.801 59.067 56.898 59.959 55.787 59.959M47.055 55.976H53.773V48.672C53.773 47.572 54.674 46.681 55.788 46.681H63.176V40.041H55.788A2.004 2.004 0 0 1 53.773 38.049V30.746H47.055V38.049C47.055 39.149 46.153 40.041 45.039 40.041H37.651V46.681H45.039C46.152 46.681 47.055 47.573 47.055 48.672z" fill="#ffffff" data-fill-palette-color="accent"></path></g></svg></g></svg></g></svg></g><defs></defs><mask id="baa48005-7be6-44a2-8d67-8afd7f0fbbc9"><g id="SvgjsG1567"><svg viewBox="0 0 395.52 75.12565317653488" height="75.12565317653488" width="395.52"><g><svg viewBox="0 0 531.3644424221197 100.9281472788911" height="75.12565317653488" width="395.52"><g><rect width="3.8008925521564274" height="87.63659676893583" x="122.09356936693602" y="6.645775254977636" fill="white" opacity="1" stroke-width="0" stroke="transparent" fill-opacity="1" class="rect-yte-0" rx="1%" id="SvgjsRect1566" data-palette-color="url(#60b0f2a0-b82e-497e-9dcf-7ebd8746956d)"></rect></g><g transform="matrix(1,0,0,1,135.84444242211976,13.94882498572229)"><svg viewBox="0 0 395.52 73.03049730744652" height="73.03049730744652" width="395.52"><g id="SvgjsG1565"><svg viewBox="0 0 395.52 73.03049730744652" height="73.03049730744652" width="395.52" id="SvgjsSvg1564"><g><svg viewBox="0 0 395.52 42.14736145574856" height="42.14736145574856" width="395.52"><g transform="matrix(1,0,0,1,0,0)"><svg width="395.52" viewBox="3.3 -33.48 362.65999999999997 38.66" height="42.14736145574856" data-palette-color="url(#60b0f2a0-b82e-497e-9dcf-7ebd8746956d)"><path d="M37.83-15.73L37.83 0 33.77 0 33.77-15.28Q33.77-17.2 33.29-18.61 32.8-20.03 31.69-20.8 30.58-21.58 28.7-21.58L28.7-21.58Q26.93-21.58 25.63-20.85 24.33-20.13 23.53-18.91 22.73-17.7 22.4-16.15L22.4-16.15 21.78-19.03 22.28-19.03Q22.68-20.6 23.63-21.95 24.58-23.3 26.2-24.13 27.83-24.95 30.23-24.95L30.23-24.95Q32.95-24.95 34.61-23.88 36.27-22.8 37.05-20.74 37.83-18.68 37.83-15.73L37.83-15.73ZM7.35-18.3L7.35 0 3.3 0 3.3-24.4 7.35-24.4 7.18-18.55 7.35-18.3ZM22.58-15.85L22.58 0 18.55 0 18.55-15.28Q18.55-17.2 18.06-18.61 17.57-20.03 16.48-20.8 15.38-21.58 13.5-21.58L13.5-21.58Q11.7-21.58 10.4-20.85 9.1-20.13 8.3-18.89 7.5-17.65 7.18-16.07L7.18-16.07 6.43-18.95 7.33-18.95Q7.7-20.6 8.63-21.96 9.55-23.33 11.14-24.14 12.73-24.95 15-24.95L15-24.95Q18.38-24.95 20.14-23.2 21.9-21.45 22.35-18.1L22.35-18.1Q22.48-17.6 22.53-17.01 22.58-16.43 22.58-15.85L22.58-15.85ZM54.35 0.55L54.35 0.55Q48.77 0.55 45.95-2.18 43.12-4.9 43.12-9.98L43.12-9.98 43.12-14.33Q43.12-19.48 45.75-22.26 48.37-25.05 53.42-25.05L53.42-25.05Q56.82-25.05 59.1-23.79 61.37-22.53 62.52-20.2 63.67-17.88 63.67-14.65L63.67-14.65 63.67-13.75Q63.67-12.95 63.61-12.15 63.55-11.35 63.45-10.58L63.45-10.58 59.72-10.58Q59.77-11.78 59.79-12.85 59.8-13.93 59.8-14.83L59.8-14.83Q59.8-17.05 59.09-18.59 58.37-20.13 56.96-20.94 55.55-21.75 53.42-21.75L53.42-21.75Q50.27-21.75 48.7-19.93 47.12-18.1 47.12-14.7L47.12-14.7 47.12-12.38 47.15-11.88 47.15-9.55Q47.15-8.03 47.6-6.8 48.05-5.58 49.01-4.69 49.97-3.8 51.46-3.34 52.95-2.88 55-2.88L55-2.88Q57.37-2.88 59.42-3.5 61.47-4.13 63.27-5.2L63.27-5.2 62.9-1.7Q61.27-0.68 59.12-0.06 56.97 0.55 54.35 0.55ZM62.6-13.63L62.6-10.58 45.25-10.58 45.25-13.63 62.6-13.63ZM77.15 0.53L77.15 0.53Q72.75 0.53 70.45-2.2 68.15-4.93 68.15-10.15L68.15-10.15 68.15-14.18Q68.15-19.43 70.47-22.19 72.8-24.95 77.32-24.95L77.32-24.95Q79.57-24.95 81.22-24.19 82.87-23.43 83.9-22.05 84.92-20.68 85.27-18.8L85.27-18.8 86.6-18.8 85.4-15.08Q85.32-17.23 84.43-18.69 83.55-20.15 82.03-20.9 80.52-21.65 78.57-21.65L78.57-21.65Q75.47-21.65 73.83-19.85 72.2-18.05 72.2-14.55L72.2-14.55 72.2-9.9Q72.2-6.45 73.83-4.65 75.47-2.85 78.57-2.85L78.57-2.85Q80.42-2.85 81.85-3.56 83.27-4.28 84.21-5.54 85.15-6.8 85.5-8.4L85.5-8.4 86.5-5.5 85.3-5.5Q84.95-3.85 83.96-2.48 82.97-1.1 81.31-0.29 79.65 0.53 77.15 0.53ZM89.35-33.13L89.35 0 85.3 0 85.47-5.9 85.4-7.2 85.4-17.4 85.42-18.25 85.32-25.18 85.32-33.13 89.35-33.13ZM100.07-24.4L100.07 0 96.02 0 96.02-24.4 100.07-24.4ZM98.04-28.4L98.04-28.4Q96.79-28.4 96.18-29.06 95.57-29.73 95.57-30.88L95.57-30.88 95.57-31Q95.57-32.18 96.18-32.83 96.79-33.48 98.04-33.48L98.04-33.48Q99.29-33.48 99.92-32.83 100.54-32.18 100.54-31L100.54-31 100.54-30.88Q100.54-29.7 99.92-29.05 99.29-28.4 98.04-28.4ZM116.17 0.55L116.17 0.55Q110.92 0.55 108.35-2.29 105.79-5.13 105.79-10.33L105.79-10.33 105.79-14.13Q105.79-19.35 108.37-22.16 110.94-24.98 116.17-24.98L116.17-24.98Q117.72-24.98 118.99-24.69 120.27-24.4 121.28-23.94 122.29-23.48 122.99-22.98L122.99-22.98 123.34-19.45Q122.17-20.35 120.55-20.98 118.94-21.6 116.77-21.6L116.77-21.6Q113.27-21.6 111.55-19.66 109.84-17.73 109.84-14.03L109.84-14.03 109.84-10.43Q109.84-6.8 111.55-4.85 113.27-2.9 116.77-2.9L116.77-2.9Q119.02-2.9 120.65-3.53 122.29-4.15 123.57-5.05L123.57-5.05 123.19-1.48Q122.09-0.73 120.32-0.09 118.54 0.55 116.17 0.55ZM146.96-15.8L146.96 0 142.94 0 143.11-5.93 142.96-6.55 142.96-14.33 142.99-15.75Q142.99-18.73 141.48-20.15 139.96-21.58 136.69-21.58L136.69-21.58Q134.06-21.58 131.88-20.83 129.69-20.08 127.99-19.07L127.99-19.07 128.36-22.53Q129.31-23.1 130.63-23.66 131.94-24.23 133.63-24.6 135.31-24.98 137.34-24.98L137.34-24.98Q139.96-24.98 141.8-24.34 143.64-23.7 144.78-22.5 145.91-21.3 146.44-19.6 146.96-17.9 146.96-15.8L146.96-15.8ZM134.54 0.53L134.54 0.53Q130.91 0.53 128.98-1.24 127.04-3 127.04-6.28L127.04-6.28 127.04-7Q127.04-10.38 129.13-12.04 131.21-13.7 135.76-14.35L135.76-14.35 143.49-15.45 143.71-12.5 136.26-11.43Q133.46-11.03 132.26-10.06 131.06-9.1 131.06-7.23L131.06-7.23 131.06-6.83Q131.06-4.9 132.25-3.88 133.44-2.85 135.81-2.85L135.81-2.85Q137.91-2.85 139.41-3.58 140.91-4.3 141.84-5.53 142.76-6.75 143.09-8.25L143.09-8.25 143.71-5.5 142.94-5.5Q142.59-3.9 141.63-2.53 140.66-1.15 138.94-0.31 137.21 0.53 134.54 0.53ZM157.31-33.13L157.31 0 153.29 0 153.29-33.13 157.31-33.13ZM182.01 2L182.01 5.18 162.13 5.18 162.13 2 182.01 2ZM194.31 0.55L194.31 0.55Q191.36 0.55 189.16-0.09 186.96-0.73 185.51-1.48L185.51-1.48 185.13-5.23Q186.96-4.28 189.14-3.58 191.33-2.88 194.11-2.88L194.11-2.88Q196.93-2.88 198.36-3.78 199.78-4.67 199.78-6.45L199.78-6.45 199.78-6.73Q199.78-7.88 199.24-8.63 198.71-9.38 197.31-9.95 195.91-10.53 193.33-11.1L193.33-11.1Q190.26-11.78 188.48-12.69 186.71-13.6 185.94-14.95 185.18-16.3 185.18-18.25L185.18-18.25 185.18-18.48Q185.18-21.68 187.41-23.33 189.63-24.98 194.11-24.98L194.11-24.98Q196.98-24.98 199.09-24.33 201.21-23.68 202.56-22.88L202.56-22.88 202.93-19.45Q201.31-20.4 199.21-21.03 197.11-21.65 194.48-21.65L194.48-21.65Q192.58-21.65 191.41-21.26 190.23-20.88 189.71-20.16 189.18-19.45 189.18-18.45L189.18-18.45 189.18-18.25Q189.18-17.15 189.71-16.39 190.23-15.63 191.59-15.06 192.96-14.5 195.38-13.98L195.38-13.98Q198.51-13.35 200.34-12.48 202.18-11.6 202.98-10.26 203.78-8.93 203.78-6.83L203.78-6.83 203.78-6.4Q203.78-2.95 201.38-1.2 198.98 0.55 194.31 0.55ZM218.08 0.55L218.08 0.55Q212.83 0.55 210.27-2.29 207.7-5.13 207.7-10.33L207.7-10.33 207.7-14.13Q207.7-19.35 210.28-22.16 212.85-24.98 218.08-24.98L218.08-24.98Q219.63-24.98 220.9-24.69 222.18-24.4 223.19-23.94 224.2-23.48 224.9-22.98L224.9-22.98 225.25-19.45Q224.08-20.35 222.47-20.98 220.85-21.6 218.68-21.6L218.68-21.6Q215.18-21.6 213.47-19.66 211.75-17.73 211.75-14.03L211.75-14.03 211.75-10.43Q211.75-6.8 213.47-4.85 215.18-2.9 218.68-2.9L218.68-2.9Q220.93-2.9 222.57-3.53 224.2-4.15 225.48-5.05L225.48-5.05 225.1-1.48Q224-0.73 222.23-0.09 220.45 0.55 218.08 0.55ZM250.75-15.63L250.75 0 246.7 0 246.7-15.18Q246.7-17.15 246.16-18.57 245.63-20 244.41-20.79 243.2-21.58 241.1-21.58L241.1-21.58Q239.18-21.58 237.78-20.85 236.38-20.13 235.51-18.89 234.65-17.65 234.3-16.07L234.3-16.07 233.4-18.95 234.45-18.95Q234.83-20.6 235.83-21.96 236.83-23.33 238.51-24.14 240.2-24.95 242.63-24.95L242.63-24.95Q245.53-24.95 247.31-23.85 249.1-22.75 249.93-20.69 250.75-18.63 250.75-15.63L250.75-15.63ZM234.43-17.85L234.43 0 230.38 0 230.38-33.13 234.4-33.13 234.4-25.18 234.28-18.18 234.43-17.85ZM267.27 0.55L267.27 0.55Q261.7 0.55 258.87-2.18 256.05-4.9 256.05-9.98L256.05-9.98 256.05-14.33Q256.05-19.48 258.67-22.26 261.3-25.05 266.35-25.05L266.35-25.05Q269.75-25.05 272.02-23.79 274.3-22.53 275.45-20.2 276.6-17.88 276.6-14.65L276.6-14.65 276.6-13.75Q276.6-12.95 276.54-12.15 276.47-11.35 276.37-10.58L276.37-10.58 272.65-10.58Q272.7-11.78 272.71-12.85 272.72-13.93 272.72-14.83L272.72-14.83Q272.72-17.05 272.01-18.59 271.3-20.13 269.89-20.94 268.47-21.75 266.35-21.75L266.35-21.75Q263.2-21.75 261.62-19.93 260.05-18.1 260.05-14.7L260.05-14.7 260.05-12.38 260.07-11.88 260.07-9.55Q260.07-8.03 260.52-6.8 260.97-5.58 261.94-4.69 262.9-3.8 264.39-3.34 265.87-2.88 267.92-2.88L267.92-2.88Q270.3-2.88 272.35-3.5 274.4-4.13 276.2-5.2L276.2-5.2 275.82-1.7Q274.2-0.68 272.05-0.06 269.9 0.55 267.27 0.55ZM275.52-13.63L275.52-10.58 258.17-10.58 258.17-13.63 275.52-13.63ZM290.07 0.53L290.07 0.53Q285.67 0.53 283.37-2.2 281.07-4.93 281.07-10.15L281.07-10.15 281.07-14.18Q281.07-19.43 283.4-22.19 285.72-24.95 290.25-24.95L290.25-24.95Q292.5-24.95 294.15-24.19 295.8-23.43 296.82-22.05 297.85-20.68 298.2-18.8L298.2-18.8 299.52-18.8 298.32-15.08Q298.25-17.23 297.36-18.69 296.47-20.15 294.96-20.9 293.45-21.65 291.5-21.65L291.5-21.65Q288.4-21.65 286.76-19.85 285.12-18.05 285.12-14.55L285.12-14.55 285.12-9.9Q285.12-6.45 286.76-4.65 288.4-2.85 291.5-2.85L291.5-2.85Q293.35-2.85 294.77-3.56 296.2-4.28 297.13-5.54 298.07-6.8 298.42-8.4L298.42-8.4 299.42-5.5 298.22-5.5Q297.87-3.85 296.88-2.48 295.9-1.1 294.23-0.29 292.57 0.53 290.07 0.53ZM302.27-33.13L302.27 0 298.22 0 298.4-5.9 298.32-7.2 298.32-17.4 298.35-18.25 298.25-25.18 298.25-33.13 302.27-33.13ZM308.57-8.78L308.57-24.4 312.59-24.4 312.59-9.22Q312.59-7.3 313.13-5.86 313.67-4.42 314.89-3.64 316.12-2.85 318.19-2.85L318.19-2.85Q320.14-2.85 321.54-3.56 322.94-4.28 323.83-5.53 324.72-6.78 325.04-8.35L325.04-8.35 325.77-5.48 324.89-5.48Q324.52-3.83 323.52-2.46 322.52-1.1 320.83-0.29 319.14 0.53 316.67 0.53L316.67 0.53Q313.79 0.53 312.01-0.56 310.22-1.65 309.39-3.74 308.57-5.83 308.57-8.78L308.57-8.78ZM324.87-6.1L324.87-24.4 328.92-24.4 328.92 0 324.87 0 325.04-5.85 324.87-6.1ZM339.67-33.13L339.67 0 335.64 0 335.64-33.13 339.67-33.13ZM356.64 0.55L356.64 0.55Q351.06 0.55 348.24-2.18 345.41-4.9 345.41-9.98L345.41-9.98 345.41-14.33Q345.41-19.48 348.04-22.26 350.66-25.05 355.71-25.05L355.71-25.05Q359.11-25.05 361.39-23.79 363.66-22.53 364.81-20.2 365.96-17.88 365.96-14.65L365.96-14.65 365.96-13.75Q365.96-12.95 365.9-12.15 365.84-11.35 365.74-10.58L365.74-10.58 362.01-10.58Q362.06-11.78 362.08-12.85 362.09-13.93 362.09-14.83L362.09-14.83Q362.09-17.05 361.38-18.59 360.66-20.13 359.25-20.94 357.84-21.75 355.71-21.75L355.71-21.75Q352.56-21.75 350.99-19.93 349.41-18.1 349.41-14.7L349.41-14.7 349.41-12.38 349.44-11.88 349.44-9.55Q349.44-8.03 349.89-6.8 350.34-5.58 351.3-4.69 352.26-3.8 353.75-3.34 355.24-2.88 357.29-2.88L357.29-2.88Q359.66-2.88 361.71-3.5 363.76-4.13 365.56-5.2L365.56-5.2 365.19-1.7Q363.56-0.68 361.41-0.06 359.26 0.55 356.64 0.55ZM364.89-13.63L364.89-10.58 347.54-10.58 347.54-13.63 364.89-13.63Z" opacity="1" transform="matrix(1,0,0,1,0,0)" fill="white" class="wordmark-text-0" id="SvgjsPath1563"></path></svg></g></svg></g><g transform="matrix(1,0,0,1,0,52.09734195877586)"><svg viewBox="0 0 169.0848 20.933155348670667" height="20.933155348670667" width="169.0848"><g transform="matrix(1,0,0,1,0,0)"><svg width="169.0848" viewBox="2.88 -33.15 272.7 33.760000000000005" height="20.933155348670667" data-palette-color="url(#8e7c58a1-893a-44ae-b07e-9ae59a23d55f)"><path d="M6.01-15.58L6.01-15.58Q6.01-8.84 8.4-5.59 10.79-2.34 14.79-2.34L14.79-2.34Q18.21-2.34 21.56-3.93L21.56-3.93 22.53-1.56Q18.75 0.24 14.6 0.24L14.6 0.24Q12.08 0.24 9.99-0.71 7.89-1.66 6.29-3.55 4.69-5.44 3.78-8.53 2.88-11.62 2.88-15.65L2.88-15.65Q2.88-24.19 5.65-27.98 8.42-31.76 14.31-31.76L14.31-31.76Q18.14-31.76 21.88-29.93L21.88-29.93 21.88-24.02 19.21-24.02 19.21-28.25Q17.11-29.17 14.58-29.17L14.58-29.17Q12.38-29.17 10.89-28.6 9.4-28.03 8.24-26.55 7.08-25.07 6.54-22.36 6.01-19.65 6.01-15.58ZM44.02-22.46L44.02-22.46Q44.02-23.73 43.81-24.71 43.6-25.68 43.25-26.37 42.89-27.05 42.22-27.51 41.55-27.98 40.88-28.26 40.21-28.54 39.08-28.69 37.96-28.83 36.96-28.87 35.96-28.91 34.42-28.91L34.42-28.91 31.52-28.91 31.52-16.16 33.64-16.16Q35.76-16.16 37.18-16.25 38.6-16.33 39.84-16.59 41.09-16.85 41.82-17.27 42.55-17.7 43.08-18.41 43.6-19.12 43.81-20.09 44.02-21.07 44.02-22.46ZM47.19-3.22L48.56-1 45.99 0.61Q40.94-7.74 38.18-13.99L38.18-13.99Q36.42-13.84 34.2-13.84L34.2-13.84 31.52-13.84 31.52 0 28.39 0 28.39-31.35 34.57-31.35Q36.81-31.35 38.4-31.23 39.99-31.1 41.5-30.77 43.02-30.44 43.99-29.82 44.97-29.2 45.71-28.23 46.46-27.27 46.8-25.84 47.14-24.41 47.14-22.51L47.14-22.51Q47.14-18.92 45.66-17.03 44.19-15.14 41.09-14.43L41.09-14.43Q42.09-12.16 43.96-8.8 45.82-5.44 47.19-3.22L47.19-3.22ZM77.49 0L75.17-26.83 68.5-10.69 65.69-10.69 58.78-26.88 56.68 0 53.8 0 56.25-31.35 59.71-31.35 67.08-14.21 74.26-31.35 77.7-31.35 80.37 0 77.49 0ZM102.9-1.68L103.9-4.08Q105.12-3.39 107.06-2.87 109-2.34 110.78-2.34L110.78-2.34Q113.03-2.34 114.41-3.31 115.79-4.27 115.79-6.47L115.79-6.47Q115.79-8.18 115-9.02 114.22-9.86 112.59-10.38L112.59-10.38 108.93-11.52Q107.46-11.99 106.52-12.44 105.58-12.89 104.78-13.61 103.97-14.33 103.6-15.39 103.24-16.46 103.24-17.94L103.24-17.94Q103.24-21.22 105.48-22.81 107.73-24.41 111.15-24.41 114.57-24.41 117.64-23L117.64-23 116.71-20.65Q114.2-21.85 111.37-21.85L111.37-21.85Q109.1-21.85 107.66-20.89 106.22-19.92 106.22-17.82L106.22-17.82Q106.22-16.26 107.01-15.63 107.8-14.99 109.85-14.33L109.85-14.33 113.44-13.18Q115.42-12.55 116.53-11.8 117.64-11.06 118.24-9.8 118.84-8.54 118.84-6.62L118.84-6.62Q118.84-4.79 118.2-3.42 117.57-2.05 116.43-1.27 115.3-0.49 113.93-0.12 112.56 0.24 110.93 0.24L110.93 0.24Q106.87 0.24 102.9-1.68L102.9-1.68ZM139.77-2.97Q137.46 0.24 132.7 0.24 127.94 0.24 125.63-2.97 123.33-6.18 123.33-12.08L123.33-12.08Q123.33-18.26 125.59-21.34 127.84-24.41 132.7-24.41 137.56-24.41 139.82-21.34 142.08-18.26 142.08-12.08L142.08-12.08Q142.08-6.18 139.77-2.97ZM135.19-21.37Q134.12-21.85 132.7-21.85 131.29-21.85 130.21-21.37 129.14-20.9 128.43-20.07 127.72-19.24 127.27-17.99 126.82-16.75 126.64-15.31 126.45-13.87 126.45-12.08L126.45-12.08Q126.45-9.79 126.75-8.09 127.04-6.4 127.73-5.05 128.43-3.71 129.68-3.03 130.92-2.34 132.7-2.34 134.48-2.34 135.73-3.03 136.97-3.71 137.67-5.05 138.37-6.4 138.66-8.09 138.95-9.79 138.95-12.08L138.95-12.08Q138.95-13.87 138.77-15.31 138.59-16.75 138.13-17.99 137.68-19.24 136.97-20.07 136.27-20.9 135.19-21.37ZM146.47-30.93L146.47-33.15 154.99-33.15 154.99-2.2 160.14-2.2 160.14 0 146.42 0 146.42-2.2 151.86-2.2 151.86-30.93 146.47-30.93ZM178.86-3.98L178.86-3.98 178.86-24.05 181.99-24.05 181.99 0 179.43 0 179.21-1.56Q176.89-0.46 175.26-0.11 173.64 0.24 171.66 0.24L171.66 0.24Q167.95 0.24 166.22-1.71 164.48-3.66 164.48-7.84L164.48-7.84 164.48-24.05 167.61-24.05 167.61-7.71Q167.61-4.79 168.57-3.56 169.54-2.34 171.98-2.34L171.98-2.34Q173.2-2.34 173.97-2.4 174.74-2.47 176.12-2.84 177.5-3.22 178.86-3.98ZM196.95 0.24L196.95 0.24Q195 0.2 193.74-0.39 192.48-0.98 191.78-2.23 191.07-3.49 190.8-5.19 190.53-6.88 190.53-9.47L190.53-9.47 190.53-21.85 186.8-21.85 186.8-24.05 190.63-24.05 191.24-30.93 193.66-30.93 193.66-24.05 201.18-24.05 201.18-21.85 193.66-21.85 193.66-9.42Q193.66-7.08 193.91-5.62 194.17-4.15 194.77-3.45 195.37-2.76 196.02-2.55 196.68-2.34 197.78-2.34L197.78-2.34Q200.3-2.34 201.44-2.51L201.44-2.51 201.57 0Q199.61 0.24 196.95 0.24ZM210.45-30.86L210.45-30.86Q210.45-31.88 211.09-32.5 211.72-33.11 212.67-33.11L212.67-33.11Q213.67-33.11 214.27-32.54 214.87-31.98 214.87-30.91 214.87-29.83 214.27-29.27 213.67-28.71 212.67-28.71L212.67-28.71Q211.7-28.71 211.07-29.28 210.45-29.86 210.45-30.86ZM211.11-21.85L206.42-21.85 206.42-24.05 214.24-24.05 214.24-2.2 218.92-2.2 218.92 0 206.42 0 206.42-2.2 211.11-2.2 211.11-21.85ZM239.15-2.97Q236.84 0.24 232.08 0.24 227.32 0.24 225.01-2.97 222.7-6.18 222.7-12.08L222.7-12.08Q222.7-18.26 224.96-21.34 227.22-24.41 232.08-24.41 236.94-24.41 239.2-21.34 241.45-18.26 241.45-12.08L241.45-12.08Q241.45-6.18 239.15-2.97ZM234.57-21.37Q233.5-21.85 232.08-21.85 230.66-21.85 229.59-21.37 228.52-20.9 227.81-20.07 227.1-19.24 226.65-17.99 226.2-16.75 226.01-15.31 225.83-13.87 225.83-12.08L225.83-12.08Q225.83-9.79 226.12-8.09 226.42-6.4 227.11-5.05 227.81-3.71 229.05-3.03 230.3-2.34 232.08-2.34 233.86-2.34 235.11-3.03 236.35-3.71 237.05-5.05 237.74-6.4 238.04-8.09 238.33-9.79 238.33-12.08L238.33-12.08Q238.33-13.87 238.15-15.31 237.96-16.75 237.51-17.99 237.06-19.24 236.35-20.07 235.64-20.9 234.57-21.37ZM250.63-20.07L250.63-20.07 250.63 0 247.51 0 247.51-24.05 250.07-24.05 250.29-22.49Q252.68-23.61 254.29-24.01 255.91-24.41 257.76-24.41L257.76-24.41Q261.47-24.41 263.24-22.39 265.01-20.36 265.01-16.19L265.01-16.19 265.01 0 261.89 0 261.89-16.31Q261.89-19.29 260.95-20.57 260.01-21.85 257.59-21.85L257.59-21.85Q253.88-21.85 250.63-20.07ZM271.67-4.93L275.58-4.93 275.58 0 271.67 0 271.67-4.93Z" opacity="1" transform="matrix(1,0,0,1,0,0)" fill="black" class="slogan-text-1" id="SvgjsPath1562"></path></svg></g></svg></g></svg></g></svg></g><g><svg viewBox="0 0 112.14358886390873 100.9281472788911" height="100.9281472788911" width="112.14358886390873"><g><svg xmlns="http://www.w3.org/2000/svg" xmlns:xlink="http://www.w3.org/1999/xlink" version="1.1" x="0" y="0" viewBox="5.413 9.5 90.001 81.00003107864575" enable-background="new 0 0 100 100" xml:space="preserve" height="100.9281472788911" width="112.14358886390873" class="icon-icon-0" data-fill-palette-color="accent" id="SvgjsSvg1561"><g fill="black"><path d="M93.398 77.222H7.429C6.316 77.222 5.413 76.33 5.413 75.23V11.491C5.413 10.392 6.315 9.5 7.429 9.5H93.399C94.512 9.5 95.414 10.393 95.414 11.491V75.229A2.005 2.005 0 0 1 93.398 77.222M9.443 73.237H91.382V13.483H9.443z" fill="black"></path></g><g fill="black"><path d="M83.995 67.927H16.831A2.004 2.004 0 0 1 14.816 65.934V20.786C14.816 19.687 15.718 18.795 16.831 18.795H83.995C85.107 18.795 86.011 19.688 86.011 20.786V65.933A2.006 2.006 0 0 1 83.995 67.927M18.846 63.942H81.98V22.778H18.846z" fill="black"></path></g><g fill="black"><path d="M59.815 90.5H41.011C39.899 90.5 38.996 89.607 38.996 88.509V75.229C38.996 74.129 39.898 73.237 41.011 73.237H59.816C60.929 73.237 61.832 74.13 61.832 75.229V88.508A2.006 2.006 0 0 1 59.815 90.5M43.025 86.517H57.8V77.222H43.025z" fill="black"></path></g><g fill="black"><rect x="16.831" y="86.517" width="67.164" height="3.983" fill="black"></rect></g><g fill="black"><path d="M55.787 59.959H45.039C43.928 59.959 43.025 59.067 43.025 57.968V50.664H35.636C34.525 50.664 33.621 49.772 33.621 48.672V38.049C33.621 36.95 34.524 36.058 35.636 36.058H43.025V28.754C43.025 27.654 43.927 26.763 45.039 26.763H55.787C56.898 26.763 57.801 27.655 57.801 28.754V36.058H65.19C66.301 36.058 67.205 36.951 67.205 38.049V48.672A2.004 2.004 0 0 1 65.19 50.664H57.801V57.968C57.801 59.067 56.898 59.959 55.787 59.959M47.055 55.976H53.773V48.672C53.773 47.572 54.674 46.681 55.788 46.681H63.176V40.041H55.788A2.004 2.004 0 0 1 53.773 38.049V30.746H47.055V38.049C47.055 39.149 46.153 40.041 45.039 40.041H37.651V46.681H45.039C46.152 46.681 47.055 47.573 47.055 48.672z" fill="black"></path></g></svg></g></svg></g></svg></g><defs><mask></mask></defs></svg><rect width="395.52" height="75.12565317653488" fill="black" stroke="none" visibility="hidden"></rect></g></mask><linearGradient x1="0.054" x2="0.941" y1="0.5" y2="0.5" id="60b0f2a0-b82e-497e-9dcf-7ebd8746956d"><stop stop-color="#26282a" offset="0"></stop><stop stop-color="#9e9fa0" offset="0.498"></stop><stop stop-color="#26282a" offset="1"></stop></linearGradient><rect width="395.52" height="75.12565317653488" fill="#ffffff" mask="url(#baa48005-7be6-44a2-8d67-8afd7f0fbbc9)" data-fill-palette-color="primary"></rect><mask id="c204d386-d989-4169-810f-74e7f76b7fae"><g id="SvgjsG1579"><svg viewBox="0 0 395.52 75.12565317653488" height="75.12565317653488" width="395.52"><g><svg viewBox="0 0 531.3644424221197 100.9281472788911" height="75.12565317653488" width="395.52"><g></g><g transform="matrix(1,0,0,1,135.84444242211976,13.94882498572229)"><svg viewBox="0 0 395.52 73.03049730744652" height="73.03049730744652" width="395.52"><g id="SvgjsG1578"><svg viewBox="0 0 395.52 73.03049730744652" height="73.03049730744652" width="395.52" id="SvgjsSvg1577"><g><svg viewBox="0 0 395.52 42.14736145574856" height="42.14736145574856" width="395.52"><g transform="matrix(1,0,0,1,0,0)"><svg width="395.52" viewBox="3.3 -33.48 362.65999999999997 38.66" height="42.14736145574856" data-palette-color="url(#60b0f2a0-b82e-497e-9dcf-7ebd8746956d)"></svg></g></svg></g><g transform="matrix(1,0,0,1,0,52.09734195877586)"><svg viewBox="0 0 169.0848 20.933155348670667" height="20.933155348670667" width="169.0848"><g transform="matrix(1,0,0,1,0,0)"><svg width="169.0848" viewBox="2.88 -33.15 272.7 33.760000000000005" height="20.933155348670667" data-palette-color="url(#8e7c58a1-893a-44ae-b07e-9ae59a23d55f)"><path d="M6.01-15.58L6.01-15.58Q6.01-8.84 8.4-5.59 10.79-2.34 14.79-2.34L14.79-2.34Q18.21-2.34 21.56-3.93L21.56-3.93 22.53-1.56Q18.75 0.24 14.6 0.24L14.6 0.24Q12.08 0.24 9.99-0.71 7.89-1.66 6.29-3.55 4.69-5.44 3.78-8.53 2.88-11.62 2.88-15.65L2.88-15.65Q2.88-24.19 5.65-27.98 8.42-31.76 14.31-31.76L14.31-31.76Q18.14-31.76 21.88-29.93L21.88-29.93 21.88-24.02 19.21-24.02 19.21-28.25Q17.11-29.17 14.58-29.17L14.58-29.17Q12.38-29.17 10.89-28.6 9.4-28.03 8.24-26.55 7.08-25.07 6.54-22.36 6.01-19.65 6.01-15.58ZM44.02-22.46L44.02-22.46Q44.02-23.73 43.81-24.71 43.6-25.68 43.25-26.37 42.89-27.05 42.22-27.51 41.55-27.98 40.88-28.26 40.21-28.54 39.08-28.69 37.96-28.83 36.96-28.87 35.96-28.91 34.42-28.91L34.42-28.91 31.52-28.91 31.52-16.16 33.64-16.16Q35.76-16.16 37.18-16.25 38.6-16.33 39.84-16.59 41.09-16.85 41.82-17.27 42.55-17.7 43.08-18.41 43.6-19.12 43.81-20.09 44.02-21.07 44.02-22.46ZM47.19-3.22L48.56-1 45.99 0.61Q40.94-7.74 38.18-13.99L38.18-13.99Q36.42-13.84 34.2-13.84L34.2-13.84 31.52-13.84 31.52 0 28.39 0 28.39-31.35 34.57-31.35Q36.81-31.35 38.4-31.23 39.99-31.1 41.5-30.77 43.02-30.44 43.99-29.82 44.97-29.2 45.71-28.23 46.46-27.27 46.8-25.84 47.14-24.41 47.14-22.51L47.14-22.51Q47.14-18.92 45.66-17.03 44.19-15.14 41.09-14.43L41.09-14.43Q42.09-12.16 43.96-8.8 45.82-5.44 47.19-3.22L47.19-3.22ZM77.49 0L75.17-26.83 68.5-10.69 65.69-10.69 58.78-26.88 56.68 0 53.8 0 56.25-31.35 59.71-31.35 67.08-14.21 74.26-31.35 77.7-31.35 80.37 0 77.49 0ZM102.9-1.68L103.9-4.08Q105.12-3.39 107.06-2.87 109-2.34 110.78-2.34L110.78-2.34Q113.03-2.34 114.41-3.31 115.79-4.27 115.79-6.47L115.79-6.47Q115.79-8.18 115-9.02 114.22-9.86 112.59-10.38L112.59-10.38 108.93-11.52Q107.46-11.99 106.52-12.44 105.58-12.89 104.78-13.61 103.97-14.33 103.6-15.39 103.24-16.46 103.24-17.94L103.24-17.94Q103.24-21.22 105.48-22.81 107.73-24.41 111.15-24.41 114.57-24.41 117.64-23L117.64-23 116.71-20.65Q114.2-21.85 111.37-21.85L111.37-21.85Q109.1-21.85 107.66-20.89 106.22-19.92 106.22-17.82L106.22-17.82Q106.22-16.26 107.01-15.63 107.8-14.99 109.85-14.33L109.85-14.33 113.44-13.18Q115.42-12.55 116.53-11.8 117.64-11.06 118.24-9.8 118.84-8.54 118.84-6.62L118.84-6.62Q118.84-4.79 118.2-3.42 117.57-2.05 116.43-1.27 115.3-0.49 113.93-0.12 112.56 0.24 110.93 0.24L110.93 0.24Q106.87 0.24 102.9-1.68L102.9-1.68ZM139.77-2.97Q137.46 0.24 132.7 0.24 127.94 0.24 125.63-2.97 123.33-6.18 123.33-12.08L123.33-12.08Q123.33-18.26 125.59-21.34 127.84-24.41 132.7-24.41 137.56-24.41 139.82-21.34 142.08-18.26 142.08-12.08L142.08-12.08Q142.08-6.18 139.77-2.97ZM135.19-21.37Q134.12-21.85 132.7-21.85 131.29-21.85 130.21-21.37 129.14-20.9 128.43-20.07 127.72-19.24 127.27-17.99 126.82-16.75 126.64-15.31 126.45-13.87 126.45-12.08L126.45-12.08Q126.45-9.79 126.75-8.09 127.04-6.4 127.73-5.05 128.43-3.71 129.68-3.03 130.92-2.34 132.7-2.34 134.48-2.34 135.73-3.03 136.97-3.71 137.67-5.05 138.37-6.4 138.66-8.09 138.95-9.79 138.95-12.08L138.95-12.08Q138.95-13.87 138.77-15.31 138.59-16.75 138.13-17.99 137.68-19.24 136.97-20.07 136.27-20.9 135.19-21.37ZM146.47-30.93L146.47-33.15 154.99-33.15 154.99-2.2 160.14-2.2 160.14 0 146.42 0 146.42-2.2 151.86-2.2 151.86-30.93 146.47-30.93ZM178.86-3.98L178.86-3.98 178.86-24.05 181.99-24.05 181.99 0 179.43 0 179.21-1.56Q176.89-0.46 175.26-0.11 173.64 0.24 171.66 0.24L171.66 0.24Q167.95 0.24 166.22-1.71 164.48-3.66 164.48-7.84L164.48-7.84 164.48-24.05 167.61-24.05 167.61-7.71Q167.61-4.79 168.57-3.56 169.54-2.34 171.98-2.34L171.98-2.34Q173.2-2.34 173.97-2.4 174.74-2.47 176.12-2.84 177.5-3.22 178.86-3.98ZM196.95 0.24L196.95 0.24Q195 0.2 193.74-0.39 192.48-0.98 191.78-2.23 191.07-3.49 190.8-5.19 190.53-6.88 190.53-9.47L190.53-9.47 190.53-21.85 186.8-21.85 186.8-24.05 190.63-24.05 191.24-30.93 193.66-30.93 193.66-24.05 201.18-24.05 201.18-21.85 193.66-21.85 193.66-9.42Q193.66-7.08 193.91-5.62 194.17-4.15 194.77-3.45 195.37-2.76 196.02-2.55 196.68-2.34 197.78-2.34L197.78-2.34Q200.3-2.34 201.44-2.51L201.44-2.51 201.57 0Q199.61 0.24 196.95 0.24ZM210.45-30.86L210.45-30.86Q210.45-31.88 211.09-32.5 211.72-33.11 212.67-33.11L212.67-33.11Q213.67-33.11 214.27-32.54 214.87-31.98 214.87-30.91 214.87-29.83 214.27-29.27 213.67-28.71 212.67-28.71L212.67-28.71Q211.7-28.71 211.07-29.28 210.45-29.86 210.45-30.86ZM211.11-21.85L206.42-21.85 206.42-24.05 214.24-24.05 214.24-2.2 218.92-2.2 218.92 0 206.42 0 206.42-2.2 211.11-2.2 211.11-21.85ZM239.15-2.97Q236.84 0.24 232.08 0.24 227.32 0.24 225.01-2.97 222.7-6.18 222.7-12.08L222.7-12.08Q222.7-18.26 224.96-21.34 227.22-24.41 232.08-24.41 236.94-24.41 239.2-21.34 241.45-18.26 241.45-12.08L241.45-12.08Q241.45-6.18 239.15-2.97ZM234.57-21.37Q233.5-21.85 232.08-21.85 230.66-21.85 229.59-21.37 228.52-20.9 227.81-20.07 227.1-19.24 226.65-17.99 226.2-16.75 226.01-15.31 225.83-13.87 225.83-12.08L225.83-12.08Q225.83-9.79 226.12-8.09 226.42-6.4 227.11-5.05 227.81-3.71 229.05-3.03 230.3-2.34 232.08-2.34 233.86-2.34 235.11-3.03 236.35-3.71 237.05-5.05 237.74-6.4 238.04-8.09 238.33-9.79 238.33-12.08L238.33-12.08Q238.33-13.87 238.15-15.31 237.96-16.75 237.51-17.99 237.06-19.24 236.35-20.07 235.64-20.9 234.57-21.37ZM250.63-20.07L250.63-20.07 250.63 0 247.51 0 247.51-24.05 250.07-24.05 250.29-22.49Q252.68-23.61 254.29-24.01 255.91-24.41 257.76-24.41L257.76-24.41Q261.47-24.41 263.24-22.39 265.01-20.36 265.01-16.19L265.01-16.19 265.01 0 261.89 0 261.89-16.31Q261.89-19.29 260.95-20.57 260.01-21.85 257.59-21.85L257.59-21.85Q253.88-21.85 250.63-20.07ZM271.67-4.93L275.58-4.93 275.58 0 271.67 0 271.67-4.93Z" opacity="1" transform="matrix(1,0,0,1,0,0)" fill="white" class="slogan-text-1" id="SvgjsPath1576"></path></svg></g></svg></g></svg></g></svg></g><g><svg viewBox="0 0 112.14358886390873 100.9281472788911" height="100.9281472788911" width="112.14358886390873"><g><svg xmlns="http://www.w3.org/2000/svg" xmlns:xlink="http://www.w3.org/1999/xlink" version="1.1" x="0" y="0" viewBox="5.413 9.5 90.001 81.00003107864575" enable-background="new 0 0 100 100" xml:space="preserve" height="100.9281472788911" width="112.14358886390873" class="icon-icon-0" data-fill-palette-color="accent" id="SvgjsSvg1575"><g fill="black"><path d="M93.398 77.222H7.429C6.316 77.222 5.413 76.33 5.413 75.23V11.491C5.413 10.392 6.315 9.5 7.429 9.5H93.399C94.512 9.5 95.414 10.393 95.414 11.491V75.229A2.005 2.005 0 0 1 93.398 77.222M9.443 73.237H91.382V13.483H9.443z" fill="black"></path></g><g fill="black"><path d="M83.995 67.927H16.831A2.004 2.004 0 0 1 14.816 65.934V20.786C14.816 19.687 15.718 18.795 16.831 18.795H83.995C85.107 18.795 86.011 19.688 86.011 20.786V65.933A2.006 2.006 0 0 1 83.995 67.927M18.846 63.942H81.98V22.778H18.846z" fill="black"></path></g><g fill="black"><path d="M59.815 90.5H41.011C39.899 90.5 38.996 89.607 38.996 88.509V75.229C38.996 74.129 39.898 73.237 41.011 73.237H59.816C60.929 73.237 61.832 74.13 61.832 75.229V88.508A2.006 2.006 0 0 1 59.815 90.5M43.025 86.517H57.8V77.222H43.025z" fill="black"></path></g><g fill="black"><rect x="16.831" y="86.517" width="67.164" height="3.983" fill="black"></rect></g><g fill="black"><path d="M55.787 59.959H45.039C43.928 59.959 43.025 59.067 43.025 57.968V50.664H35.636C34.525 50.664 33.621 49.772 33.621 48.672V38.049C33.621 36.95 34.524 36.058 35.636 36.058H43.025V28.754C43.025 27.654 43.927 26.763 45.039 26.763H55.787C56.898 26.763 57.801 27.655 57.801 28.754V36.058H65.19C66.301 36.058 67.205 36.951 67.205 38.049V48.672A2.004 2.004 0 0 1 65.19 50.664H57.801V57.968C57.801 59.067 56.898 59.959 55.787 59.959M47.055 55.976H53.773V48.672C53.773 47.572 54.674 46.681 55.788 46.681H63.176V40.041H55.788A2.004 2.004 0 0 1 53.773 38.049V30.746H47.055V38.049C47.055 39.149 46.153 40.041 45.039 40.041H37.651V46.681H45.039C46.152 46.681 47.055 47.573 47.055 48.672z" fill="black"></path></g></svg></g></svg></g></svg></g><defs><mask></mask></defs><mask><g id="SvgjsG1574"><svg viewBox="0 0 395.52 75.12565317653488" height="75.12565317653488" width="395.52"><g><svg viewBox="0 0 531.3644424221197 100.9281472788911" height="75.12565317653488" width="395.52"><g><rect width="3.8008925521564274" height="87.63659676893583" x="122.09356936693602" y="6.645775254977636" fill="black" opacity="1" stroke-width="0" stroke="transparent" fill-opacity="1" class="rect-yte-0" rx="1%" id="SvgjsRect1573" data-palette-color="url(#60b0f2a0-b82e-497e-9dcf-7ebd8746956d)"></rect></g><g transform="matrix(1,0,0,1,135.84444242211976,13.94882498572229)"><svg viewBox="0 0 395.52 73.03049730744652" height="73.03049730744652" width="395.52"><g id="SvgjsG1572"><svg viewBox="0 0 395.52 73.03049730744652" height="73.03049730744652" width="395.52" id="SvgjsSvg1571"><g><svg viewBox="0 0 395.52 42.14736145574856" height="42.14736145574856" width="395.52"><g transform="matrix(1,0,0,1,0,0)"><svg width="395.52" viewBox="3.3 -33.48 362.65999999999997 38.66" height="42.14736145574856" data-palette-color="url(#60b0f2a0-b82e-497e-9dcf-7ebd8746956d)"><path d="M37.83-15.73L37.83 0 33.77 0 33.77-15.28Q33.77-17.2 33.29-18.61 32.8-20.03 31.69-20.8 30.58-21.58 28.7-21.58L28.7-21.58Q26.93-21.58 25.63-20.85 24.33-20.13 23.53-18.91 22.73-17.7 22.4-16.15L22.4-16.15 21.78-19.03 22.28-19.03Q22.68-20.6 23.63-21.95 24.58-23.3 26.2-24.13 27.83-24.95 30.23-24.95L30.23-24.95Q32.95-24.95 34.61-23.88 36.27-22.8 37.05-20.74 37.83-18.68 37.83-15.73L37.83-15.73ZM7.35-18.3L7.35 0 3.3 0 3.3-24.4 7.35-24.4 7.18-18.55 7.35-18.3ZM22.58-15.85L22.58 0 18.55 0 18.55-15.28Q18.55-17.2 18.06-18.61 17.57-20.03 16.48-20.8 15.38-21.58 13.5-21.58L13.5-21.58Q11.7-21.58 10.4-20.85 9.1-20.13 8.3-18.89 7.5-17.65 7.18-16.07L7.18-16.07 6.43-18.95 7.33-18.95Q7.7-20.6 8.63-21.96 9.55-23.33 11.14-24.14 12.73-24.95 15-24.95L15-24.95Q18.38-24.95 20.14-23.2 21.9-21.45 22.35-18.1L22.35-18.1Q22.48-17.6 22.53-17.01 22.58-16.43 22.58-15.85L22.58-15.85ZM54.35 0.55L54.35 0.55Q48.77 0.55 45.95-2.18 43.12-4.9 43.12-9.98L43.12-9.98 43.12-14.33Q43.12-19.48 45.75-22.26 48.37-25.05 53.42-25.05L53.42-25.05Q56.82-25.05 59.1-23.79 61.37-22.53 62.52-20.2 63.67-17.88 63.67-14.65L63.67-14.65 63.67-13.75Q63.67-12.95 63.61-12.15 63.55-11.35 63.45-10.58L63.45-10.58 59.72-10.58Q59.77-11.78 59.79-12.85 59.8-13.93 59.8-14.83L59.8-14.83Q59.8-17.05 59.09-18.59 58.37-20.13 56.96-20.94 55.55-21.75 53.42-21.75L53.42-21.75Q50.27-21.75 48.7-19.93 47.12-18.1 47.12-14.7L47.12-14.7 47.12-12.38 47.15-11.88 47.15-9.55Q47.15-8.03 47.6-6.8 48.05-5.58 49.01-4.69 49.97-3.8 51.46-3.34 52.95-2.88 55-2.88L55-2.88Q57.37-2.88 59.42-3.5 61.47-4.13 63.27-5.2L63.27-5.2 62.9-1.7Q61.27-0.68 59.12-0.06 56.97 0.55 54.35 0.55ZM62.6-13.63L62.6-10.58 45.25-10.58 45.25-13.63 62.6-13.63ZM77.15 0.53L77.15 0.53Q72.75 0.53 70.45-2.2 68.15-4.93 68.15-10.15L68.15-10.15 68.15-14.18Q68.15-19.43 70.47-22.19 72.8-24.95 77.32-24.95L77.32-24.95Q79.57-24.95 81.22-24.19 82.87-23.43 83.9-22.05 84.92-20.68 85.27-18.8L85.27-18.8 86.6-18.8 85.4-15.08Q85.32-17.23 84.43-18.69 83.55-20.15 82.03-20.9 80.52-21.65 78.57-21.65L78.57-21.65Q75.47-21.65 73.83-19.85 72.2-18.05 72.2-14.55L72.2-14.55 72.2-9.9Q72.2-6.45 73.83-4.65 75.47-2.85 78.57-2.85L78.57-2.85Q80.42-2.85 81.85-3.56 83.27-4.28 84.21-5.54 85.15-6.8 85.5-8.4L85.5-8.4 86.5-5.5 85.3-5.5Q84.95-3.85 83.96-2.48 82.97-1.1 81.31-0.29 79.65 0.53 77.15 0.53ZM89.35-33.13L89.35 0 85.3 0 85.47-5.9 85.4-7.2 85.4-17.4 85.42-18.25 85.32-25.18 85.32-33.13 89.35-33.13ZM100.07-24.4L100.07 0 96.02 0 96.02-24.4 100.07-24.4ZM98.04-28.4L98.04-28.4Q96.79-28.4 96.18-29.06 95.57-29.73 95.57-30.88L95.57-30.88 95.57-31Q95.57-32.18 96.18-32.83 96.79-33.48 98.04-33.48L98.04-33.48Q99.29-33.48 99.92-32.83 100.54-32.18 100.54-31L100.54-31 100.54-30.88Q100.54-29.7 99.92-29.05 99.29-28.4 98.04-28.4ZM116.17 0.55L116.17 0.55Q110.92 0.55 108.35-2.29 105.79-5.13 105.79-10.33L105.79-10.33 105.79-14.13Q105.79-19.35 108.37-22.16 110.94-24.98 116.17-24.98L116.17-24.98Q117.72-24.98 118.99-24.69 120.27-24.4 121.28-23.94 122.29-23.48 122.99-22.98L122.99-22.98 123.34-19.45Q122.17-20.35 120.55-20.98 118.94-21.6 116.77-21.6L116.77-21.6Q113.27-21.6 111.55-19.66 109.84-17.73 109.84-14.03L109.84-14.03 109.84-10.43Q109.84-6.8 111.55-4.85 113.27-2.9 116.77-2.9L116.77-2.9Q119.02-2.9 120.65-3.53 122.29-4.15 123.57-5.05L123.57-5.05 123.19-1.48Q122.09-0.73 120.32-0.09 118.54 0.55 116.17 0.55ZM146.96-15.8L146.96 0 142.94 0 143.11-5.93 142.96-6.55 142.96-14.33 142.99-15.75Q142.99-18.73 141.48-20.15 139.96-21.58 136.69-21.58L136.69-21.58Q134.06-21.58 131.88-20.83 129.69-20.08 127.99-19.07L127.99-19.07 128.36-22.53Q129.31-23.1 130.63-23.66 131.94-24.23 133.63-24.6 135.31-24.98 137.34-24.98L137.34-24.98Q139.96-24.98 141.8-24.34 143.64-23.7 144.78-22.5 145.91-21.3 146.44-19.6 146.96-17.9 146.96-15.8L146.96-15.8ZM134.54 0.53L134.54 0.53Q130.91 0.53 128.98-1.24 127.04-3 127.04-6.28L127.04-6.28 127.04-7Q127.04-10.38 129.13-12.04 131.21-13.7 135.76-14.35L135.76-14.35 143.49-15.45 143.71-12.5 136.26-11.43Q133.46-11.03 132.26-10.06 131.06-9.1 131.06-7.23L131.06-7.23 131.06-6.83Q131.06-4.9 132.25-3.88 133.44-2.85 135.81-2.85L135.81-2.85Q137.91-2.85 139.41-3.58 140.91-4.3 141.84-5.53 142.76-6.75 143.09-8.25L143.09-8.25 143.71-5.5 142.94-5.5Q142.59-3.9 141.63-2.53 140.66-1.15 138.94-0.31 137.21 0.53 134.54 0.53ZM157.31-33.13L157.31 0 153.29 0 153.29-33.13 157.31-33.13ZM182.01 2L182.01 5.18 162.13 5.18 162.13 2 182.01 2ZM194.31 0.55L194.31 0.55Q191.36 0.55 189.16-0.09 186.96-0.73 185.51-1.48L185.51-1.48 185.13-5.23Q186.96-4.28 189.14-3.58 191.33-2.88 194.11-2.88L194.11-2.88Q196.93-2.88 198.36-3.78 199.78-4.67 199.78-6.45L199.78-6.45 199.78-6.73Q199.78-7.88 199.24-8.63 198.71-9.38 197.31-9.95 195.91-10.53 193.33-11.1L193.33-11.1Q190.26-11.78 188.48-12.69 186.71-13.6 185.94-14.95 185.18-16.3 185.18-18.25L185.18-18.25 185.18-18.48Q185.18-21.68 187.41-23.33 189.63-24.98 194.11-24.98L194.11-24.98Q196.98-24.98 199.09-24.33 201.21-23.68 202.56-22.88L202.56-22.88 202.93-19.45Q201.31-20.4 199.21-21.03 197.11-21.65 194.48-21.65L194.48-21.65Q192.58-21.65 191.41-21.26 190.23-20.88 189.71-20.16 189.18-19.45 189.18-18.45L189.18-18.45 189.18-18.25Q189.18-17.15 189.71-16.39 190.23-15.63 191.59-15.06 192.96-14.5 195.38-13.98L195.38-13.98Q198.51-13.35 200.34-12.48 202.18-11.6 202.98-10.26 203.78-8.93 203.78-6.83L203.78-6.83 203.78-6.4Q203.78-2.95 201.38-1.2 198.98 0.55 194.31 0.55ZM218.08 0.55L218.08 0.55Q212.83 0.55 210.27-2.29 207.7-5.13 207.7-10.33L207.7-10.33 207.7-14.13Q207.7-19.35 210.28-22.16 212.85-24.98 218.08-24.98L218.08-24.98Q219.63-24.98 220.9-24.69 222.18-24.4 223.19-23.94 224.2-23.48 224.9-22.98L224.9-22.98 225.25-19.45Q224.08-20.35 222.47-20.98 220.85-21.6 218.68-21.6L218.68-21.6Q215.18-21.6 213.47-19.66 211.75-17.73 211.75-14.03L211.75-14.03 211.75-10.43Q211.75-6.8 213.47-4.85 215.18-2.9 218.68-2.9L218.68-2.9Q220.93-2.9 222.57-3.53 224.2-4.15 225.48-5.05L225.48-5.05 225.1-1.48Q224-0.73 222.23-0.09 220.45 0.55 218.08 0.55ZM250.75-15.63L250.75 0 246.7 0 246.7-15.18Q246.7-17.15 246.16-18.57 245.63-20 244.41-20.79 243.2-21.58 241.1-21.58L241.1-21.58Q239.18-21.58 237.78-20.85 236.38-20.13 235.51-18.89 234.65-17.65 234.3-16.07L234.3-16.07 233.4-18.95 234.45-18.95Q234.83-20.6 235.83-21.96 236.83-23.33 238.51-24.14 240.2-24.95 242.63-24.95L242.63-24.95Q245.53-24.95 247.31-23.85 249.1-22.75 249.93-20.69 250.75-18.63 250.75-15.63L250.75-15.63ZM234.43-17.85L234.43 0 230.38 0 230.38-33.13 234.4-33.13 234.4-25.18 234.28-18.18 234.43-17.85ZM267.27 0.55L267.27 0.55Q261.7 0.55 258.87-2.18 256.05-4.9 256.05-9.98L256.05-9.98 256.05-14.33Q256.05-19.48 258.67-22.26 261.3-25.05 266.35-25.05L266.35-25.05Q269.75-25.05 272.02-23.79 274.3-22.53 275.45-20.2 276.6-17.88 276.6-14.65L276.6-14.65 276.6-13.75Q276.6-12.95 276.54-12.15 276.47-11.35 276.37-10.58L276.37-10.58 272.65-10.58Q272.7-11.78 272.71-12.85 272.72-13.93 272.72-14.83L272.72-14.83Q272.72-17.05 272.01-18.59 271.3-20.13 269.89-20.94 268.47-21.75 266.35-21.75L266.35-21.75Q263.2-21.75 261.62-19.93 260.05-18.1 260.05-14.7L260.05-14.7 260.05-12.38 260.07-11.88 260.07-9.55Q260.07-8.03 260.52-6.8 260.97-5.58 261.94-4.69 262.9-3.8 264.39-3.34 265.87-2.88 267.92-2.88L267.92-2.88Q270.3-2.88 272.35-3.5 274.4-4.13 276.2-5.2L276.2-5.2 275.82-1.7Q274.2-0.68 272.05-0.06 269.9 0.55 267.27 0.55ZM275.52-13.63L275.52-10.58 258.17-10.58 258.17-13.63 275.52-13.63ZM290.07 0.53L290.07 0.53Q285.67 0.53 283.37-2.2 281.07-4.93 281.07-10.15L281.07-10.15 281.07-14.18Q281.07-19.43 283.4-22.19 285.72-24.95 290.25-24.95L290.25-24.95Q292.5-24.95 294.15-24.19 295.8-23.43 296.82-22.05 297.85-20.68 298.2-18.8L298.2-18.8 299.52-18.8 298.32-15.08Q298.25-17.23 297.36-18.69 296.47-20.15 294.96-20.9 293.45-21.65 291.5-21.65L291.5-21.65Q288.4-21.65 286.76-19.85 285.12-18.05 285.12-14.55L285.12-14.55 285.12-9.9Q285.12-6.45 286.76-4.65 288.4-2.85 291.5-2.85L291.5-2.85Q293.35-2.85 294.77-3.56 296.2-4.28 297.13-5.54 298.07-6.8 298.42-8.4L298.42-8.4 299.42-5.5 298.22-5.5Q297.87-3.85 296.88-2.48 295.9-1.1 294.23-0.29 292.57 0.53 290.07 0.53ZM302.27-33.13L302.27 0 298.22 0 298.4-5.9 298.32-7.2 298.32-17.4 298.35-18.25 298.25-25.18 298.25-33.13 302.27-33.13ZM308.57-8.78L308.57-24.4 312.59-24.4 312.59-9.22Q312.59-7.3 313.13-5.86 313.67-4.42 314.89-3.64 316.12-2.85 318.19-2.85L318.19-2.85Q320.14-2.85 321.54-3.56 322.94-4.28 323.83-5.53 324.72-6.78 325.04-8.35L325.04-8.35 325.77-5.48 324.89-5.48Q324.52-3.83 323.52-2.46 322.52-1.1 320.83-0.29 319.14 0.53 316.67 0.53L316.67 0.53Q313.79 0.53 312.01-0.56 310.22-1.65 309.39-3.74 308.57-5.83 308.57-8.78L308.57-8.78ZM324.87-6.1L324.87-24.4 328.92-24.4 328.92 0 324.87 0 325.04-5.85 324.87-6.1ZM339.67-33.13L339.67 0 335.64 0 335.64-33.13 339.67-33.13ZM356.64 0.55L356.64 0.55Q351.06 0.55 348.24-2.18 345.41-4.9 345.41-9.98L345.41-9.98 345.41-14.33Q345.41-19.48 348.04-22.26 350.66-25.05 355.71-25.05L355.71-25.05Q359.11-25.05 361.39-23.79 363.66-22.53 364.81-20.2 365.96-17.88 365.96-14.65L365.96-14.65 365.96-13.75Q365.96-12.95 365.9-12.15 365.84-11.35 365.74-10.58L365.74-10.58 362.01-10.58Q362.06-11.78 362.08-12.85 362.09-13.93 362.09-14.83L362.09-14.83Q362.09-17.05 361.38-18.59 360.66-20.13 359.25-20.94 357.84-21.75 355.71-21.75L355.71-21.75Q352.56-21.75 350.99-19.93 349.41-18.1 349.41-14.7L349.41-14.7 349.41-12.38 349.44-11.88 349.44-9.55Q349.44-8.03 349.89-6.8 350.34-5.58 351.3-4.69 352.26-3.8 353.75-3.34 355.24-2.88 357.29-2.88L357.29-2.88Q359.66-2.88 361.71-3.5 363.76-4.13 365.56-5.2L365.56-5.2 365.19-1.7Q363.56-0.68 361.41-0.06 359.26 0.55 356.64 0.55ZM364.89-13.63L364.89-10.58 347.54-10.58 347.54-13.63 364.89-13.63Z" opacity="1" transform="matrix(1,0,0,1,0,0)" fill="black" class="wordmark-text-0" id="SvgjsPath1570"></path></svg></g></svg></g><g transform="matrix(1,0,0,1,0,52.09734195877586)"><svg viewBox="0 0 169.0848 20.933155348670667" height="20.933155348670667" width="169.0848"><g transform="matrix(1,0,0,1,0,0)"><svg width="169.0848" viewBox="2.88 -33.15 272.7 33.760000000000005" height="20.933155348670667" data-palette-color="url(#8e7c58a1-893a-44ae-b07e-9ae59a23d55f)"><path d="M6.01-15.58L6.01-15.58Q6.01-8.84 8.4-5.59 10.79-2.34 14.79-2.34L14.79-2.34Q18.21-2.34 21.56-3.93L21.56-3.93 22.53-1.56Q18.75 0.24 14.6 0.24L14.6 0.24Q12.08 0.24 9.99-0.71 7.89-1.66 6.29-3.55 4.69-5.44 3.78-8.53 2.88-11.62 2.88-15.65L2.88-15.65Q2.88-24.19 5.65-27.98 8.42-31.76 14.31-31.76L14.31-31.76Q18.14-31.76 21.88-29.93L21.88-29.93 21.88-24.02 19.21-24.02 19.21-28.25Q17.11-29.17 14.58-29.17L14.58-29.17Q12.38-29.17 10.89-28.6 9.4-28.03 8.24-26.55 7.08-25.07 6.54-22.36 6.01-19.65 6.01-15.58ZM44.02-22.46L44.02-22.46Q44.02-23.73 43.81-24.71 43.6-25.68 43.25-26.37 42.89-27.05 42.22-27.51 41.55-27.98 40.88-28.26 40.21-28.54 39.08-28.69 37.96-28.83 36.96-28.87 35.96-28.91 34.42-28.91L34.42-28.91 31.52-28.91 31.52-16.16 33.64-16.16Q35.76-16.16 37.18-16.25 38.6-16.33 39.84-16.59 41.09-16.85 41.82-17.27 42.55-17.7 43.08-18.41 43.6-19.12 43.81-20.09 44.02-21.07 44.02-22.46ZM47.19-3.22L48.56-1 45.99 0.61Q40.94-7.74 38.18-13.99L38.18-13.99Q36.42-13.84 34.2-13.84L34.2-13.84 31.52-13.84 31.52 0 28.39 0 28.39-31.35 34.57-31.35Q36.81-31.35 38.4-31.23 39.99-31.1 41.5-30.77 43.02-30.44 43.99-29.82 44.97-29.2 45.71-28.23 46.46-27.27 46.8-25.84 47.14-24.41 47.14-22.51L47.14-22.51Q47.14-18.92 45.66-17.03 44.19-15.14 41.09-14.43L41.09-14.43Q42.09-12.16 43.96-8.8 45.82-5.44 47.19-3.22L47.19-3.22ZM77.49 0L75.17-26.83 68.5-10.69 65.69-10.69 58.78-26.88 56.68 0 53.8 0 56.25-31.35 59.71-31.35 67.08-14.21 74.26-31.35 77.7-31.35 80.37 0 77.49 0ZM102.9-1.68L103.9-4.08Q105.12-3.39 107.06-2.87 109-2.34 110.78-2.34L110.78-2.34Q113.03-2.34 114.41-3.31 115.79-4.27 115.79-6.47L115.79-6.47Q115.79-8.18 115-9.02 114.22-9.86 112.59-10.38L112.59-10.38 108.93-11.52Q107.46-11.99 106.52-12.44 105.58-12.89 104.78-13.61 103.97-14.33 103.6-15.39 103.24-16.46 103.24-17.94L103.24-17.94Q103.24-21.22 105.48-22.81 107.73-24.41 111.15-24.41 114.57-24.41 117.64-23L117.64-23 116.71-20.65Q114.2-21.85 111.37-21.85L111.37-21.85Q109.1-21.85 107.66-20.89 106.22-19.92 106.22-17.82L106.22-17.82Q106.22-16.26 107.01-15.63 107.8-14.99 109.85-14.33L109.85-14.33 113.44-13.18Q115.42-12.55 116.53-11.8 117.64-11.06 118.24-9.8 118.84-8.54 118.84-6.62L118.84-6.62Q118.84-4.79 118.2-3.42 117.57-2.05 116.43-1.27 115.3-0.49 113.93-0.12 112.56 0.24 110.93 0.24L110.93 0.24Q106.87 0.24 102.9-1.68L102.9-1.68ZM139.77-2.97Q137.46 0.24 132.7 0.24 127.94 0.24 125.63-2.97 123.33-6.18 123.33-12.08L123.33-12.08Q123.33-18.26 125.59-21.34 127.84-24.41 132.7-24.41 137.56-24.41 139.82-21.34 142.08-18.26 142.08-12.08L142.08-12.08Q142.08-6.18 139.77-2.97ZM135.19-21.37Q134.12-21.85 132.7-21.85 131.29-21.85 130.21-21.37 129.14-20.9 128.43-20.07 127.72-19.24 127.27-17.99 126.82-16.75 126.64-15.31 126.45-13.87 126.45-12.08L126.45-12.08Q126.45-9.79 126.75-8.09 127.04-6.4 127.73-5.05 128.43-3.71 129.68-3.03 130.92-2.34 132.7-2.34 134.48-2.34 135.73-3.03 136.97-3.71 137.67-5.05 138.37-6.4 138.66-8.09 138.95-9.79 138.95-12.08L138.95-12.08Q138.95-13.87 138.77-15.31 138.59-16.75 138.13-17.99 137.68-19.24 136.97-20.07 136.27-20.9 135.19-21.37ZM146.47-30.93L146.47-33.15 154.99-33.15 154.99-2.2 160.14-2.2 160.14 0 146.42 0 146.42-2.2 151.86-2.2 151.86-30.93 146.47-30.93ZM178.86-3.98L178.86-3.98 178.86-24.05 181.99-24.05 181.99 0 179.43 0 179.21-1.56Q176.89-0.46 175.26-0.11 173.64 0.24 171.66 0.24L171.66 0.24Q167.95 0.24 166.22-1.71 164.48-3.66 164.48-7.84L164.48-7.84 164.48-24.05 167.61-24.05 167.61-7.71Q167.61-4.79 168.57-3.56 169.54-2.34 171.98-2.34L171.98-2.34Q173.2-2.34 173.97-2.4 174.74-2.47 176.12-2.84 177.5-3.22 178.86-3.98ZM196.95 0.24L196.95 0.24Q195 0.2 193.74-0.39 192.48-0.98 191.78-2.23 191.07-3.49 190.8-5.19 190.53-6.88 190.53-9.47L190.53-9.47 190.53-21.85 186.8-21.85 186.8-24.05 190.63-24.05 191.24-30.93 193.66-30.93 193.66-24.05 201.18-24.05 201.18-21.85 193.66-21.85 193.66-9.42Q193.66-7.08 193.91-5.62 194.17-4.15 194.77-3.45 195.37-2.76 196.02-2.55 196.68-2.34 197.78-2.34L197.78-2.34Q200.3-2.34 201.44-2.51L201.44-2.51 201.57 0Q199.61 0.24 196.95 0.24ZM210.45-30.86L210.45-30.86Q210.45-31.88 211.09-32.5 211.72-33.11 212.67-33.11L212.67-33.11Q213.67-33.11 214.27-32.54 214.87-31.98 214.87-30.91 214.87-29.83 214.27-29.27 213.67-28.71 212.67-28.71L212.67-28.71Q211.7-28.71 211.07-29.28 210.45-29.86 210.45-30.86ZM211.11-21.85L206.42-21.85 206.42-24.05 214.24-24.05 214.24-2.2 218.92-2.2 218.92 0 206.42 0 206.42-2.2 211.11-2.2 211.11-21.85ZM239.15-2.97Q236.84 0.24 232.08 0.24 227.32 0.24 225.01-2.97 222.7-6.18 222.7-12.08L222.7-12.08Q222.7-18.26 224.96-21.34 227.22-24.41 232.08-24.41 236.94-24.41 239.2-21.34 241.45-18.26 241.45-12.08L241.45-12.08Q241.45-6.18 239.15-2.97ZM234.57-21.37Q233.5-21.85 232.08-21.85 230.66-21.85 229.59-21.37 228.52-20.9 227.81-20.07 227.1-19.24 226.65-17.99 226.2-16.75 226.01-15.31 225.83-13.87 225.83-12.08L225.83-12.08Q225.83-9.79 226.12-8.09 226.42-6.4 227.11-5.05 227.81-3.71 229.05-3.03 230.3-2.34 232.08-2.34 233.86-2.34 235.11-3.03 236.35-3.71 237.05-5.05 237.74-6.4 238.04-8.09 238.33-9.79 238.33-12.08L238.33-12.08Q238.33-13.87 238.15-15.31 237.96-16.75 237.51-17.99 237.06-19.24 236.35-20.07 235.64-20.9 234.57-21.37ZM250.63-20.07L250.63-20.07 250.63 0 247.51 0 247.51-24.05 250.07-24.05 250.29-22.49Q252.68-23.61 254.29-24.01 255.91-24.41 257.76-24.41L257.76-24.41Q261.47-24.41 263.24-22.39 265.01-20.36 265.01-16.19L265.01-16.19 265.01 0 261.89 0 261.89-16.31Q261.89-19.29 260.95-20.57 260.01-21.85 257.59-21.85L257.59-21.85Q253.88-21.85 250.63-20.07ZM271.67-4.93L275.58-4.93 275.58 0 271.67 0 271.67-4.93Z" opacity="1" transform="matrix(1,0,0,1,0,0)" fill="black" class="slogan-text-1" id="SvgjsPath1569"></path></svg></g></svg></g></svg></g></svg></g><g><svg viewBox="0 0 112.14358886390873 100.9281472788911" height="100.9281472788911" width="112.14358886390873"><g><svg xmlns="http://www.w3.org/2000/svg" xmlns:xlink="http://www.w3.org/1999/xlink" version="1.1" x="0" y="0" viewBox="5.413 9.5 90.001 81.00003107864575" enable-background="new 0 0 100 100" xml:space="preserve" height="100.9281472788911" width="112.14358886390873" class="icon-icon-0" data-fill-palette-color="accent" id="SvgjsSvg1568"><g fill="black"><path d="M93.398 77.222H7.429C6.316 77.222 5.413 76.33 5.413 75.23V11.491C5.413 10.392 6.315 9.5 7.429 9.5H93.399C94.512 9.5 95.414 10.393 95.414 11.491V75.229A2.005 2.005 0 0 1 93.398 77.222M9.443 73.237H91.382V13.483H9.443z" fill="black"></path></g><g fill="black"><path d="M83.995 67.927H16.831A2.004 2.004 0 0 1 14.816 65.934V20.786C14.816 19.687 15.718 18.795 16.831 18.795H83.995C85.107 18.795 86.011 19.688 86.011 20.786V65.933A2.006 2.006 0 0 1 83.995 67.927M18.846 63.942H81.98V22.778H18.846z" fill="black"></path></g><g fill="black"><path d="M59.815 90.5H41.011C39.899 90.5 38.996 89.607 38.996 88.509V75.229C38.996 74.129 39.898 73.237 41.011 73.237H59.816C60.929 73.237 61.832 74.13 61.832 75.229V88.508A2.006 2.006 0 0 1 59.815 90.5M43.025 86.517H57.8V77.222H43.025z" fill="black"></path></g><g fill="black"><rect x="16.831" y="86.517" width="67.164" height="3.983" fill="black"></rect></g><g fill="black"><path d="M55.787 59.959H45.039C43.928 59.959 43.025 59.067 43.025 57.968V50.664H35.636C34.525 50.664 33.621 49.772 33.621 48.672V38.049C33.621 36.95 34.524 36.058 35.636 36.058H43.025V28.754C43.025 27.654 43.927 26.763 45.039 26.763H55.787C56.898 26.763 57.801 27.655 57.801 28.754V36.058H65.19C66.301 36.058 67.205 36.951 67.205 38.049V48.672A2.004 2.004 0 0 1 65.19 50.664H57.801V57.968C57.801 59.067 56.898 59.959 55.787 59.959M47.055 55.976H53.773V48.672C53.773 47.572 54.674 46.681 55.788 46.681H63.176V40.041H55.788A2.004 2.004 0 0 1 53.773 38.049V30.746H47.055V38.049C47.055 39.149 46.153 40.041 45.039 40.041H37.651V46.681H45.039C46.152 46.681 47.055 47.573 47.055 48.672z" fill="black"></path></g></svg></g></svg></g></svg></g><defs><mask></mask></defs></svg><rect width="395.52" height="75.12565317653488" fill="black" stroke="none" visibility="hidden"></rect></g></mask></svg><rect width="395.52" height="75.12565317653488" fill="black" stroke="none" visibility="hidden"></rect></g></mask><linearGradient x1="0.054" x2="0.941" y1="0.5" y2="0.5" id="8e7c58a1-893a-44ae-b07e-9ae59a23d55f"><stop stop-color="#26282a" offset="0"></stop><stop stop-color="#9e9fa0" offset="0.498"></stop><stop stop-color="#26282a" offset="1"></stop></linearGradient><rect width="395.52" height="75.12565317653488" fill="#ffffff" mask="url(#c204d386-d989-4169-810f-74e7f76b7fae)" data-fill-palette-color="secondary"></rect></svg><rect width="395.52" height="75.12565317653488" fill="none" stroke="none" visibility="hidden"></rect></g></svg></g></svg>